<svg width="49" height="65" viewBox="0 0 49 65" fill="none" xmlns="http://www.w3.org/2000/svg">
<path fill-rule="evenodd" clip-rule="evenodd" d="M43.1734 28.0378C43.4819 29.483 43.6271 31.0367 43.6271 32.7168C43.6271 35.9505 43.0645 38.8772 41.9212 41.5147C41.4131 42.689 40.8323 43.7729 40.1609 44.7846L43.5726 53.1851H39.6164L37.5476 47.9642L37.2391 48.2713C35.2428 50.1501 32.9562 51.5953 30.3793 52.607C27.7841 53.6367 25.0257 54.1426 22.1039 54.1426C18.9643 54.1426 16.0607 53.6006 13.3749 52.5167C10.689 51.4327 8.32979 49.9152 6.33355 47.9642L5.84356 47.4764L3.55695 53.1851H0.0181477L3.55695 44.5678C2.83104 43.5019 2.21402 42.3458 1.68774 41.1354C0.562579 38.552 0 35.7337 0 32.6987C0 30.4586 0.308511 28.363 0.907385 26.4119C1.50626 24.4608 2.28661 22.6723 3.24844 21.0825L5.95245 22.3471C5.06321 23.7563 4.31915 25.328 3.72028 27.0803C3.10326 28.8327 2.81289 30.6934 2.81289 32.6445C2.81289 35.1556 3.30288 37.5222 4.28286 39.7624C4.48248 40.2321 4.70025 40.6837 4.93617 41.1173L21.6502 0H21.9406L38.7816 41.4063C38.8336 41.2976 38.8871 41.1889 38.9408 41.0798L38.9409 41.0797C39.0746 40.808 39.2095 40.5337 39.3261 40.2501C40.306 37.9739 40.796 35.4447 40.796 32.6445C40.796 30.567 40.5057 28.652 39.9249 26.9177C39.3442 25.1834 38.6183 23.6298 37.7291 22.2749L40.306 20.9019C40.8686 21.8232 41.4131 22.8891 41.9393 24.0814C42.4656 25.2738 42.883 26.5926 43.1734 28.0378ZM29.2722 49.8068C31.5407 48.9397 33.5551 47.7112 35.2791 46.0853C35.6602 45.724 36.0232 45.3627 36.368 44.9833L32.9381 36.3299L31.6314 33.0239L21.7409 7.98499L11.669 33.0058L10.3442 36.3118L7.13205 44.333C7.51315 44.8027 7.93054 45.2362 8.36609 45.6698C10.1264 47.368 12.159 48.7048 14.4819 49.6623C16.8048 50.6198 19.3092 51.0895 21.995 51.0895C24.572 51.0895 26.9856 50.674 29.2722 49.8068ZM43.3549 64.4038L39.6164 60.032H39.5983V64.8916H39.8342V60.6462L43.5726 65V60.1223H43.3549V64.4038ZM34.0088 62.9947H32.8836V62.796H34.2266V64.6026C34.154 64.6568 34.0451 64.711 33.9362 64.7471C33.8273 64.8013 33.7003 64.8374 33.5732 64.8735C33.4462 64.9097 33.3192 64.9277 33.1921 64.9458C33.047 64.9639 32.9199 64.9639 32.811 64.9639C32.4299 64.9639 32.1033 64.9097 31.7948 64.7832C31.4863 64.6568 31.2322 64.4761 31.0144 64.2593C30.7966 64.0425 30.6333 63.7896 30.5244 63.5006C30.3974 63.2115 30.343 62.9044 30.343 62.5611C30.343 62.2179 30.4155 61.8927 30.5426 61.5856C30.6696 61.2785 30.8511 61.0075 31.0689 60.7907C31.2866 60.5559 31.5589 60.3933 31.8492 60.2668C32.1396 60.1404 32.4662 60.0862 32.7929 60.0862C33.0288 60.0862 33.2647 60.1223 33.4825 60.1765C33.7003 60.2307 33.8999 60.321 34.0814 60.4294L33.9906 60.6281C33.8818 60.5559 33.7547 60.5017 33.6277 60.4475C33.5007 60.4113 33.3736 60.3752 33.2284 60.3391L33.185 60.3336L33.1849 60.3336C33.0574 60.3175 32.9415 60.3029 32.811 60.3029C32.5025 60.3029 32.2122 60.3752 31.94 60.4836C31.6677 60.592 31.4318 60.7546 31.2322 60.9533C31.0326 61.152 30.8692 61.3869 30.7604 61.6579C30.6515 61.9288 30.597 62.2179 30.597 62.525C30.597 62.8502 30.6515 63.1212 30.7604 63.3922C30.8511 63.6631 30.9963 63.898 31.1959 64.0967C31.3774 64.2954 31.6133 64.458 31.8855 64.5664C32.1577 64.6748 32.4662 64.729 32.7929 64.729C32.9925 64.729 33.2103 64.711 33.4281 64.6568C33.6458 64.6026 33.8455 64.5303 34.0088 64.44V62.9947ZM18.8918 62.4166C19.0551 62.4889 19.2003 62.5611 19.3273 62.6695C19.4725 62.7599 19.5632 62.9044 19.6177 63.067C19.6903 63.2115 19.7266 63.4102 19.7266 63.627C19.7266 63.898 19.6721 64.1329 19.5451 64.3316C19.418 64.5303 19.2366 64.6929 19.0188 64.8013C18.801 64.9097 18.5469 64.9639 18.2566 64.9639C18.0025 64.9639 17.7847 64.9277 17.5851 64.8735C17.3855 64.8013 17.2222 64.729 17.077 64.6568C17.0214 64.6251 16.9693 64.5935 16.9221 64.5649L16.9218 64.5647L16.9217 64.5647C16.8614 64.528 16.8092 64.4964 16.7685 64.4761L16.8774 64.2774C16.9681 64.3496 17.0951 64.4219 17.2403 64.4942C17.3855 64.5664 17.5488 64.6206 17.7122 64.6748C17.8755 64.729 18.057 64.7471 18.2203 64.7471C18.4199 64.7471 18.6195 64.711 18.8192 64.6206C19.0006 64.5303 19.164 64.4038 19.291 64.2412C19.418 64.0787 19.4725 63.8619 19.4725 63.609C19.4725 63.3741 19.418 63.1573 19.291 63.0128C19.1821 62.8683 19.0188 62.7418 18.8373 62.6515C18.6377 62.5611 18.4381 62.4708 18.2384 62.3986C18.2078 62.3871 18.1764 62.3757 18.1444 62.3641L18.1444 62.3641C18.0251 62.3207 17.8993 62.2749 17.7847 62.2179C17.6214 62.1456 17.4944 62.0734 17.3673 61.983C17.2403 61.8927 17.1496 61.7843 17.077 61.6579C17.0044 61.5314 16.9681 61.3869 16.9681 61.2062C16.9681 60.9894 17.0407 60.7907 17.1496 60.6281C17.2766 60.4655 17.4218 60.3391 17.6214 60.2488C17.821 60.1584 18.0388 60.1042 18.2929 60.1042C18.4925 60.1042 18.7103 60.1223 18.9462 60.1765C19.1821 60.2307 19.3817 60.3029 19.5451 60.3933L19.4543 60.5739C19.3092 60.5017 19.1458 60.4475 18.9462 60.3933C18.7466 60.3391 18.5288 60.3029 18.3292 60.3029C18.0025 60.3029 17.7303 60.3933 17.5307 60.5559C17.3311 60.7185 17.2403 60.9352 17.2403 61.1882C17.2403 61.3688 17.2948 61.5314 17.4036 61.6579C17.5125 61.7663 17.6577 61.8747 17.8392 61.965C18.0207 62.0553 18.2203 62.1456 18.4199 62.2179C18.5443 62.2592 18.6581 62.3109 18.7774 62.3651L18.8234 62.386C18.8459 62.3962 18.8687 62.4064 18.8918 62.4166ZM3.1214 60.9172C2.92178 60.6823 2.64956 60.4836 2.32291 60.3391C1.99625 60.1946 1.61515 60.1223 1.1433 60.1223H0.0181477V64.8916H1.37923C1.68774 64.8916 1.9781 64.8374 2.25031 64.729C2.52253 64.6206 2.7766 64.458 2.99437 64.2593C3.21214 64.0606 3.37547 63.8077 3.50251 63.5186C3.62954 63.2296 3.68398 62.9044 3.68398 62.5431C3.68398 62.2721 3.62954 61.9831 3.5388 61.7121C3.46621 61.405 3.32103 61.152 3.1214 60.9172ZM3.30288 63.4102C3.194 63.6812 3.03067 63.898 2.83104 64.0967C2.63142 64.2774 2.41364 64.4219 2.14143 64.5303C1.88736 64.6206 1.597 64.6748 1.30663 64.6748H0.254068V60.3572H1.16145C1.5607 60.3572 1.90551 60.4113 2.19587 60.5378C2.48623 60.6643 2.72215 60.8269 2.92178 61.0256C3.10326 61.2424 3.24844 61.4592 3.33918 61.7301C3.42992 61.9831 3.46621 62.254 3.46621 62.507C3.46621 62.8502 3.41177 63.1393 3.30288 63.4102ZM9.14644 62.5973H11.5601V62.3805H9.14644V60.3391H11.8142V60.1223H8.91052V64.8916H11.9049V64.6748H9.14644V62.5973ZM25.1709 60.1223H24.9349V64.8916H25.1709V60.1223ZM36.368 18.8966C37.1665 18.8966 37.8198 18.2462 37.8198 17.4514C37.8198 16.6565 37.1665 16.0061 36.368 16.0061C35.5695 16.0061 34.9162 16.6565 34.9162 17.4514C34.898 18.2462 35.5513 18.8966 36.368 18.8966ZM48.9988 51.7218C48.9988 52.52 48.3488 53.167 47.547 53.167C46.7452 53.167 46.0952 52.52 46.0952 51.7218C46.0952 50.9236 46.7452 50.2765 47.547 50.2765C48.3488 50.2765 48.9988 50.9236 48.9988 51.7218Z" fill="white"/>
</svg>
