<svg width="667" height="170" viewBox="0 0 667 170" fill="none" xmlns="http://www.w3.org/2000/svg">
<path d="M48.542 34.0018C48.542 25.9456 48.7185 18.0646 48.189 10.0084C48.0125 7.55654 47.6594 5.10466 46.7768 2.65278C45.8943 0.551163 44.8352 -0.149374 42.0109 0.0257687C39.8927 0.0257687 39.0101 0.726306 38.3041 3.00304C35.6563 10.709 33.1851 18.4149 30.7139 26.2959C25.2418 43.8094 20.4759 61.6731 15.8865 79.3616C15.5334 80.2373 15.1804 80.5876 14.4743 80.5876C11.6501 80.7627 9.00233 81.113 6.17807 81.4633C4.41291 81.6384 2.82426 81.8135 1.23561 82.5141C0.529548 82.6892 -1.55562e-06 83.0395 -1.56874e-06 83.74C-1.58514e-06 84.6157 0.529548 84.9659 1.23561 85.1411C2.47123 85.8416 3.88336 86.0167 5.47201 85.8416C7.94324 85.6665 10.4145 85.4913 12.8857 85.3162C14.1213 85.1411 14.2978 85.3162 13.9448 86.5421C12.1796 93.5475 10.2379 100.378 8.6493 107.558C7.94324 111.061 7.06065 114.564 7.23717 118.066C7.23717 118.942 7.23717 119.643 8.11975 120.168C10.0614 121.219 12.1796 120.343 12.7092 118.241C12.8857 117.891 12.8857 117.366 13.0622 116.84C15.5334 106.332 17.8282 95.8243 20.6524 85.3162C20.8289 84.6157 21.0055 84.0903 21.888 83.9151C28.4191 83.0395 34.5972 81.113 40.9518 79.7119C42.0109 79.5368 42.1874 79.887 42.3639 80.7627C42.8935 86.5421 43.7761 92.1464 44.8352 97.7507C46.0708 104.056 47.6594 110.185 50.6602 115.965C52.6019 119.467 55.2496 122.445 58.9565 124.021C60.5451 124.721 62.1338 124.721 63.5459 124.021C63.8989 123.846 64.4285 123.671 64.252 123.145C64.252 122.795 63.7224 122.62 63.3694 122.62C61.9573 122.795 61.2512 121.919 60.5451 121.219C59.8391 120.343 59.3095 119.467 58.9565 118.592C57.0148 114.564 55.6027 110.185 54.5436 105.632C52.6019 97.2253 51.5428 88.8189 50.8367 80.0622C50.6602 77.9606 50.4837 78.1357 52.6019 77.4352C53.308 77.26 54.5436 77.26 54.5436 76.3843C54.367 75.1584 52.9549 75.5087 52.2489 75.6838C50.4837 76.0341 50.3072 75.1584 50.3072 73.7573C49.2481 61.8482 48.895 49.9391 48.542 38.0299C48.542 36.6288 48.542 35.4029 48.542 34.0018ZM40.2457 55.018C40.5988 61.4979 41.1283 67.9779 41.6579 74.4579C41.8344 77.0849 42.0109 76.7346 39.7162 76.9098C34.4207 77.7854 29.1252 78.486 23.8297 79.1865C22.2411 79.5368 22.0645 79.5368 22.5941 77.9606C27.7131 58.1704 33.1851 38.5553 39.3632 19.1154C39.5397 18.7651 39.7162 18.4149 39.8927 17.8895C39.8927 30.324 39.7162 42.7586 40.2457 55.018Z" fill="white"/>
<path d="M108.587 73.2319C108.057 72.5314 107.174 72.8817 106.468 73.0568C106.115 73.2319 105.762 73.4071 105.409 73.5822C104.174 74.2827 102.762 74.8081 101.526 75.5087C100.114 76.5595 99.0547 76.2092 97.819 74.9833C96.4069 73.5822 95.1713 71.8309 93.5826 70.6049C91.4645 69.0287 87.4046 68.3282 84.7568 70.9552C81.9326 73.7573 79.8144 76.9098 77.6962 80.9378C77.5197 80.2373 77.5197 79.887 77.5197 79.5368C77.1666 76.7346 77.1666 73.7573 76.6371 70.9552C76.4606 69.9044 76.1075 68.8536 75.0484 68.3282C71.5181 66.4017 66.9287 68.153 66.0461 72.006C64.1044 80.0622 64.8105 87.9432 68.8704 95.474C70.6355 98.4513 73.1067 99.5021 76.4606 98.4513C77.6962 98.101 78.4022 97.5756 78.4022 96.1745C78.4022 94.5983 78.4022 93.0221 78.5788 91.4459C79.8144 84.9659 82.1091 79.0114 86.3455 73.9325C88.2872 71.6557 88.2872 71.6557 89.6993 74.1076C93.7592 80.4124 101.879 81.6384 107.88 74.633C108.234 74.2827 108.94 73.7573 108.587 73.2319Z" fill="white"/>
<path d="M159.354 84.4405C158.825 83.74 158.119 83.74 157.413 83.74C156.53 83.9151 155.647 84.2654 155.294 85.1411C153.529 88.6438 151.235 91.621 148.587 94.5983C145.939 97.5756 142.938 100.378 139.761 103.18C139.584 102.83 139.584 102.479 139.584 102.304C138.702 94.5983 137.29 86.8924 135.701 79.3616C135.348 77.0849 134.819 74.9833 134.289 72.8817C133.759 71.1303 131.994 70.4298 129.523 70.7801C127.581 70.9552 127.228 71.3055 127.052 73.5822C127.052 73.9325 126.875 74.2827 126.699 74.633C125.816 78.1357 124.228 81.2881 122.815 84.6157C121.227 88.6438 118.932 91.9713 115.931 94.9486C114.519 96.1745 114.343 96.1745 113.813 94.4232C113.107 91.9713 112.754 89.5194 112.577 87.0676C112.401 82.3389 112.577 77.6103 112.577 72.8817C112.401 71.8309 112.577 70.9552 111.695 70.2546C109.047 68.3282 105.164 69.7292 104.281 72.5314C103.222 76.5595 103.222 80.7627 103.399 84.9659C103.399 88.1184 104.105 91.0956 105.34 94.0729C108.165 100.903 117.343 100.553 120.344 96.1745C121.403 94.7735 122.462 93.5475 123.345 92.1464C125.11 89.5194 126.169 86.5421 127.581 83.74C127.934 85.3162 128.111 86.8924 128.287 88.4686C129.347 95.6491 130.229 102.655 130.759 109.66C130.935 110.536 130.582 111.061 130.053 111.411C128.287 112.637 126.875 114.038 125.11 115.264C118.403 120.168 111.871 125.247 106.223 131.377C101.986 135.93 98.6327 140.834 96.5145 146.613C93.5137 154.845 95.9849 161.5 102.34 166.228C107.105 169.731 112.577 169.731 118.049 168.68C124.404 167.279 128.993 163.076 132.877 158.172C137.996 151.692 139.761 143.811 140.644 135.58C141.526 126.998 141.173 118.417 140.291 109.835C140.114 108.784 140.467 107.909 141.35 107.208C148.234 101.078 155.118 94.7735 159.001 86.0167C159.178 85.4913 159.707 85.1411 159.354 84.4405ZM129.17 148.54C127.052 155.02 123.521 160.624 117.696 164.477C113.46 167.279 108.518 166.579 104.987 162.726C100.751 157.822 99.8683 152.393 102.34 146.438C105.517 138.732 110.636 132.602 116.814 127.173C121.227 123.145 125.993 119.643 130.759 116.14C130.759 115.965 130.935 115.965 131.288 115.965C131.465 118.767 131.641 121.569 131.641 124.371C131.994 132.602 131.465 140.659 129.17 148.54Z" fill="white"/>
<path d="M224.521 25.9456C223.285 42.2331 222.932 58.3455 223.815 74.4579C224.521 87.7681 226.992 100.728 230.346 113.513C231.228 116.49 231.934 119.467 234.229 121.744C235.112 122.62 236.171 122.97 237.406 122.62C238.112 122.62 238.465 122.27 238.289 121.394C237.936 120.343 237.936 119.117 237.583 117.891C235.112 108.784 233.523 99.3269 232.817 89.8697C231.581 74.8081 232.287 59.5714 232.817 44.3348C233.17 36.4537 233.876 28.3975 234.229 20.5165C234.405 15.4376 234.405 10.3587 232.993 5.27979C232.287 2.47765 231.052 1.42683 228.051 1.07657C225.227 0.901437 223.108 1.77711 221.873 4.05386C219.402 8.60734 217.283 13.336 215.165 18.0646C209.693 30.8494 205.104 43.9845 199.632 56.7693C197.337 62.3736 194.866 67.9779 191.159 72.7065C187.982 76.9097 187.805 76.9098 184.804 72.5314C181.804 68.3282 180.391 63.5995 178.979 58.8709C175.979 48.538 174.213 38.0299 171.566 27.5219C170.33 22.7932 169.094 17.8895 166.8 13.336C166.27 12.2852 165.564 11.2344 164.152 11.0592C161.151 10.5338 159.916 11.4095 159.386 14.737C158.503 21.5673 157.444 28.3975 156.738 35.4029C155.326 50.9899 154.267 66.5768 155.15 82.1638C155.503 92.1464 156.209 101.954 158.503 111.762C159.033 114.389 159.739 117.016 161.151 119.292C161.681 119.993 162.387 120.518 163.269 120.343C164.328 119.993 164.328 119.117 164.152 118.417C164.152 116.665 163.975 114.739 163.799 112.812C162.563 100.903 161.857 88.994 161.681 76.9098C161.328 63.9498 161.857 50.9899 162.916 37.8548C163.093 34.5272 163.446 31.1997 163.622 27.697C163.975 28.3975 164.152 29.0981 164.328 29.6235C165.917 39.431 167.859 49.2385 170.683 58.6958C172.625 64.6503 174.743 70.4298 179.156 75.3335C183.745 80.5876 191.512 80.7627 196.454 75.5087C199.279 72.3563 201.22 68.6784 203.162 64.8255C208.105 54.8428 211.988 44.1596 216.224 33.6516C218.872 26.9965 221.696 20.5165 224.874 14.0365C225.227 18.0646 224.874 22.0927 224.521 25.9456Z" fill="white"/>
<path d="M301.407 84.7908C299.819 84.6157 298.936 85.3162 298.053 86.5421C295.582 90.0448 293.464 93.7227 290.11 96.5248C286.05 100.027 282.343 98.9767 280.755 93.8978C280.578 93.3724 280.402 92.6718 280.225 91.9713C279.519 88.1184 279.696 84.4405 279.872 80.5876C279.872 78.1357 280.049 75.8589 279.696 73.4071C279.519 72.3563 278.99 71.6557 277.754 71.4806C275.283 70.9552 274.047 71.4806 272.459 73.5822C271.223 71.1303 269.105 69.7292 266.281 69.379C260.808 68.8536 252.865 70.9552 249.158 78.1357C247.923 80.5876 247.04 83.0394 246.511 85.4913C245.805 88.6437 246.158 91.7962 247.217 94.7735C249.688 102.83 259.22 103.18 263.809 98.6264C266.987 95.2989 269.458 91.4459 271.576 87.4178C271.929 86.8924 271.929 86.367 272.635 86.0167C272.635 87.0675 272.635 87.9432 272.635 88.6438C272.988 91.2708 273.341 93.8978 274.753 96.1745C278.284 102.129 288.522 103.18 293.994 98.101C297.347 94.7735 299.642 90.5702 302.466 86.5421C302.996 85.6665 302.466 84.9659 301.407 84.7908ZM269.281 80.7627C266.634 85.6665 264.339 90.7454 260.808 95.1237C260.102 96.1745 259.22 97.2253 258.161 97.9259C257.278 98.6264 256.572 98.4513 255.866 97.7507C254.101 95.2989 254.101 92.6719 253.924 90.22C254.101 84.7908 255.513 80.2373 258.867 76.2092C260.102 74.8081 261.691 73.7573 263.456 73.0568C264.162 72.7065 264.692 72.8817 265.221 73.4071C267.163 75.1584 268.222 77.4352 269.281 79.7119C269.458 80.0622 269.458 80.4124 269.281 80.7627Z" fill="white"/>
<path d="M359.989 83.8516C362.282 81.3821 362.856 77.8101 361.532 74.7233C360.165 71.6805 357.166 69.6961 353.814 69.6961L343.715 69.6961L343.715 100.036L356.769 100.036C360.783 100.036 364.223 97.1692 365.017 93.2445C365.81 89.3197 363.694 85.3509 359.989 83.8516ZM347.067 73.0917L353.814 73.0917C356.593 73.0917 358.842 75.3407 358.842 78.1188C358.842 80.897 356.593 83.1901 353.814 83.1901L347.067 83.1901L347.067 73.0917ZM356.769 96.64L347.067 96.64L347.067 86.5416L356.769 86.5416C359.548 86.5416 361.797 88.8346 361.797 91.6128C361.797 94.391 359.548 96.64 356.769 96.64Z" fill="white"/>
<path d="M422.92 73.0917L422.92 69.6961L404.882 69.6961L404.882 100.036L422.92 100.036L422.92 96.64L408.234 96.64L408.234 86.5416L420.803 86.5416L420.803 83.1901L408.234 83.1901L408.234 73.0917L422.92 73.0917Z" fill="white"/>
<path d="M474.555 69.2551L462.603 100.036L466.176 100.036L468.469 94.1264L480.553 94.1264L482.847 100.036L486.419 100.036L474.555 69.2551ZM469.792 90.775L474.555 78.5598L479.274 90.775L469.792 90.775Z" fill="white"/>
<path d="M543.472 69.6961L543.472 89.6725C543.472 93.5531 540.34 96.6841 536.504 96.6841C532.622 96.6841 529.491 93.5531 529.491 89.6725L529.491 69.6961L526.139 69.6961L526.139 89.6725C526.139 95.4053 530.77 100.036 536.504 100.036C542.237 100.036 546.868 95.4053 546.868 89.6725L546.868 69.6961L543.472 69.6961Z" fill="white"/>
<path d="M586.574 69.6961L586.574 73.0917L594.116 73.0917L594.116 100.036L597.512 100.036L597.512 73.0917L605.097 73.0917L605.097 69.6961L586.574 69.6961Z" fill="white"/>
<path d="M662.984 69.6961L655.795 81.5144L648.695 69.6961L644.77 69.6961L654.163 85.3068L654.163 100.036L657.515 100.036L657.515 85.1745L666.909 69.6961L662.984 69.6961Z" fill="white"/>
</svg>
