<svg width="168" height="119" viewBox="0 0 168 119" fill="none" xmlns="http://www.w3.org/2000/svg">
<path d="M26.9434 19.0489C26.9434 14.5355 27.0413 10.1203 26.7474 5.60702C26.6494 4.2334 26.4535 2.85979 25.9636 1.48617C25.4737 0.308778 24.8859 -0.0836835 23.3183 0.0144367C22.1425 0.0144367 21.6527 0.406899 21.2608 1.6824C19.7911 5.99949 18.4195 10.3166 17.0478 14.7318C14.0105 24.5433 11.3652 34.5511 8.81783 44.4608C8.62188 44.9514 8.42592 45.1476 8.03402 45.1476C6.46641 45.2457 4.99677 45.442 3.42916 45.6382C2.4494 45.7363 1.56761 45.8344 0.685831 46.2269C0.293928 46.325 1.05949e-07 46.5212 1.06843e-07 46.9137C1.0796e-07 47.4043 0.293928 47.6005 0.685831 47.6986C1.37166 48.0911 2.15547 48.1892 3.03725 48.0911C4.40891 47.993 5.78058 47.8948 7.15224 47.7967C7.83807 47.6986 7.93605 47.7967 7.74009 48.4835C6.76033 52.4082 5.6826 56.2347 4.80082 60.2574C4.40891 62.2197 3.91903 64.182 4.01701 66.1443C4.01701 66.6349 4.01701 67.0274 4.50689 67.3217C5.58462 67.9104 6.76033 67.4198 7.05426 66.2425C7.15224 66.0462 7.15224 65.7519 7.25021 65.4575C8.62188 59.5706 9.89556 53.6837 11.4632 47.7967C11.5612 47.4043 11.6591 47.1099 12.149 47.0118C15.7741 46.5212 19.2033 45.442 22.7304 44.657C23.3183 44.5589 23.4162 44.7551 23.5142 45.2457C23.8081 48.4835 24.298 51.6232 24.8859 54.7629C25.5717 58.2951 26.4535 61.7291 28.1191 64.9669C29.1968 66.9293 30.6664 68.5972 32.7239 69.4803C33.6057 69.8727 34.4875 69.8727 35.2713 69.4803C35.4673 69.3821 35.7612 69.284 35.6632 68.9897C35.6632 68.7935 35.3693 68.6953 35.1733 68.6953C34.3895 68.7935 33.9976 68.3029 33.6057 67.9104C33.2138 67.4198 32.9199 66.9293 32.7239 66.4387C31.6462 64.182 30.8624 61.7291 30.2745 59.1781C29.1968 54.4686 28.609 49.759 28.217 44.8533C28.1191 43.6759 28.0211 43.774 29.1968 43.3815C29.5887 43.2834 30.2745 43.2834 30.2745 42.7928C30.1766 42.106 29.3928 42.3022 29.0009 42.4004C28.0211 42.5966 27.9231 42.106 27.9231 41.3211C27.3353 34.6492 27.1393 27.9774 26.9434 21.3055C26.9434 20.5206 26.9434 19.8338 26.9434 19.0489ZM22.3385 30.8227C22.5344 34.453 22.8284 38.0833 23.1223 41.7136C23.2203 43.1853 23.3183 42.9891 22.0446 43.0872C19.1053 43.5778 16.166 43.9702 13.2267 44.3627C12.345 44.5589 12.247 44.5589 12.5409 43.6759C15.3822 32.5888 18.4195 21.5999 21.8486 10.709C21.9466 10.5128 22.0446 10.3166 22.1425 10.0222C22.1425 16.9884 22.0446 23.9546 22.3385 30.8227Z" fill="white"/>
<path d="M60.2712 41.0267C59.9773 40.6343 59.4874 40.8305 59.0955 40.9286C58.8996 41.0268 58.7036 41.1249 58.5077 41.223C57.8218 41.6154 57.038 41.9098 56.3522 42.3022C55.5684 42.8909 54.9805 42.6947 54.2947 42.0079C53.5109 41.223 52.8251 40.2418 51.9433 39.555C50.7676 38.672 48.5141 38.2795 47.0445 39.7512C45.4769 41.3211 44.3012 43.0872 43.1254 45.3438C43.0275 44.9514 43.0275 44.7551 43.0275 44.5589C42.8315 42.9891 42.8315 41.3211 42.5376 39.7512C42.4396 39.1626 42.2437 38.5739 41.6558 38.2795C39.6963 37.2002 37.1489 38.1814 36.659 40.3399C35.5813 44.8533 35.9732 49.2685 38.2267 53.4874C39.2064 55.1554 40.5781 55.7441 42.4396 55.1554C43.1254 54.9592 43.5174 54.6648 43.5174 53.8799C43.5174 52.9969 43.5174 52.1138 43.6153 51.2308C44.3012 47.6005 45.5748 44.2646 47.9263 41.4192C49.004 40.1437 49.004 40.1437 49.7878 41.5173C52.0413 45.0495 56.5481 45.7363 59.8793 41.8117C60.0753 41.6154 60.4672 41.3211 60.2712 41.0267Z" fill="white"/>
<path d="M88.45 47.3061C88.1561 46.9137 87.7642 46.9137 87.3723 46.9137C86.8824 47.0118 86.3925 47.208 86.1966 47.6986C85.2168 49.6609 83.9431 51.3289 82.4735 52.9969C81.0038 54.6648 79.3382 56.2347 77.5747 57.8045C77.4767 57.6083 77.4767 57.4121 77.4767 57.3139C76.9868 52.9969 76.203 48.6798 75.3212 44.4608C75.1253 43.1853 74.8314 42.0079 74.5374 40.8305C74.2435 39.8494 73.2637 39.4569 71.8921 39.6531C70.8143 39.7512 70.6184 39.9475 70.5204 41.223C70.5204 41.4192 70.4224 41.6154 70.3245 41.8117C69.8346 43.774 68.9528 45.5401 68.169 47.4043C67.2872 49.6609 66.0135 51.5251 64.3479 53.1931C63.5641 53.8799 63.4662 53.8799 63.1722 52.8987C62.7803 51.5251 62.5844 50.1515 62.4864 48.7779C62.3884 46.1288 62.4864 43.4796 62.4864 40.8305C62.3884 40.2418 62.4864 39.7512 61.9965 39.3588C60.5269 38.2795 58.3714 39.0644 57.8815 40.6343C57.2937 42.8909 57.2937 45.2457 57.3917 47.6005C57.3917 49.3666 57.7836 51.0345 58.4694 52.7025C60.037 56.529 65.1317 56.3328 66.7973 53.8799C67.3852 53.095 67.973 52.4082 68.4629 51.6232C69.4427 50.1515 70.0305 48.4835 70.8143 46.9137C71.0103 47.7967 71.1083 48.6798 71.2062 49.5628C71.7941 53.5855 72.284 57.5102 72.5779 61.4348C72.6759 61.9254 72.4799 62.2197 72.186 62.4159C71.2062 63.1028 70.4224 63.8877 69.4427 64.5745C65.7196 67.3217 62.0945 70.1671 58.9593 73.6011C56.6078 76.1521 54.7463 78.8994 53.5706 82.1372C51.905 86.7486 53.2767 90.477 56.8038 93.1261C59.4491 95.0884 62.4864 95.0884 65.5236 94.4997C69.0508 93.7148 71.5982 91.36 73.7536 88.6128C76.5949 84.9825 77.5747 80.5673 78.0646 75.9559C78.5544 71.1482 78.3585 66.3406 77.8686 61.5329C77.7706 60.9442 77.9666 60.4536 78.4565 60.0612C82.2775 56.6271 86.0986 53.095 88.254 48.1892C88.352 47.8948 88.646 47.6986 88.45 47.3061ZM71.6961 83.2164C70.5204 86.8467 68.5609 89.9864 65.3277 92.145C62.9763 93.7148 60.233 93.3224 58.2734 91.1638C55.922 88.4166 55.4321 85.375 56.8038 82.0391C58.5674 77.722 61.4087 74.2879 64.8378 71.2463C67.2872 68.9897 69.9326 67.0274 72.5779 65.0651C72.5779 64.967 72.6759 64.9669 72.8718 64.9669C72.9698 66.5368 73.0678 68.1066 73.0678 69.6765C73.2637 74.2879 72.9698 78.8012 71.6961 83.2164Z" fill="white"/>
<path d="M124.621 14.5355C123.935 23.6603 123.739 32.6869 124.229 41.7136C124.621 49.1703 125.992 56.4309 127.854 63.5933C128.344 65.2613 128.736 66.9293 130.009 68.2048C130.499 68.6953 131.087 68.8916 131.773 68.6953C132.165 68.6953 132.361 68.4991 132.263 68.0085C132.067 67.4198 132.067 66.733 131.871 66.0462C130.499 60.9442 129.617 55.646 129.226 50.3477C128.54 41.9098 128.932 33.3737 129.226 24.8377C129.422 20.4225 129.813 15.9092 130.009 11.494C130.107 8.6486 130.107 5.80325 129.324 2.9579C128.932 1.38805 128.246 0.799357 126.58 0.603128C125.013 0.505014 123.837 0.995591 123.151 2.27109C121.779 4.8221 120.604 7.47122 119.428 10.1203C116.391 17.2828 113.843 24.6414 110.806 31.8039C109.532 34.9436 108.161 38.0833 106.103 40.7324C104.34 43.0872 104.242 43.0872 102.576 40.6343C100.911 38.2795 100.127 35.6304 99.3429 32.9813C97.6773 27.1924 96.6976 21.3055 95.2279 15.4186C94.5421 12.7695 93.8563 10.0222 92.5826 7.47122C92.2887 6.88253 91.8968 6.29383 91.1129 6.19571C89.4474 5.90137 88.7615 6.39195 88.4676 8.25614C87.9777 12.0827 87.3899 15.9092 86.998 19.8338C86.2142 28.5661 85.6263 37.2984 86.1162 46.0306C86.3121 51.6232 86.704 57.1177 87.9777 62.6122C88.2716 64.0839 88.6636 65.5556 89.4474 66.8311C89.7413 67.2236 90.1332 67.518 90.6231 67.4198C91.2109 67.2236 91.2109 66.733 91.1129 66.3406C91.1129 65.3594 91.015 64.2801 90.917 63.2009C90.2312 56.529 89.8393 49.8572 89.7413 43.0872C89.5453 35.8266 89.8393 28.5661 90.4271 21.2074C90.5251 19.3432 90.721 17.479 90.819 15.5167C91.015 15.9092 91.1129 16.3016 91.2109 16.596C92.0927 22.0904 93.1704 27.5849 94.7381 32.8832C95.8158 36.2191 96.9915 39.4569 99.4409 42.2041C101.988 45.1476 106.299 45.2457 109.043 42.3022C110.61 40.5362 111.688 38.4757 112.766 36.3172C115.509 30.7246 117.664 24.7396 120.016 18.8526C121.485 15.1242 123.053 11.494 124.817 7.86368C125.013 10.1203 124.817 12.377 124.621 14.5355Z" fill="white"/>
<path d="M167.297 47.5024C166.415 47.4043 165.925 47.7967 165.435 48.4835C164.064 50.4458 162.888 52.5063 161.026 54.0761C158.773 56.0384 156.715 55.4497 155.834 52.6044C155.736 52.31 155.638 51.9176 155.54 51.5251C155.148 49.3666 155.246 47.3061 155.344 45.1476C155.344 43.774 155.442 42.4985 155.246 41.1249C155.148 40.5362 154.854 40.1437 154.168 40.0456C152.796 39.7512 152.111 40.0456 151.229 41.223C150.543 39.8494 149.367 39.0644 147.8 38.8682C144.762 38.5739 140.353 39.7512 138.296 43.774C137.61 45.1476 137.12 46.5212 136.826 47.8948C136.434 49.6609 136.63 51.427 137.218 53.095C138.59 57.6083 143.881 57.8045 146.428 55.2535C148.192 53.3893 149.563 51.2308 150.739 48.9741C150.935 48.6798 150.935 48.3854 151.327 48.1892C151.327 48.7779 151.327 49.2685 151.327 49.6609C151.523 51.1327 151.719 52.6044 152.502 53.8799C154.462 57.2158 160.145 57.8045 163.182 54.9592C165.043 53.095 166.317 50.7402 167.885 48.4835C168.179 47.993 167.885 47.6005 167.297 47.5024ZM149.465 45.2457C147.996 47.993 146.722 50.8383 144.762 53.2912C144.37 53.8799 143.881 54.4686 143.293 54.861C142.803 55.2535 142.411 55.1554 142.019 54.7629C141.039 53.3893 141.039 51.9176 140.941 50.544C141.039 47.5024 141.823 44.9514 143.685 42.6947C144.37 41.9098 145.252 41.3211 146.232 40.9286C146.624 40.7324 146.918 40.8305 147.212 41.1249C148.29 42.106 148.877 43.3815 149.465 44.657C149.563 44.8533 149.563 45.0495 149.465 45.2457Z" fill="white"/>
<path d="M34.0144 113.304C34.8167 112.435 35.0173 111.178 34.5544 110.092C34.0761 109.021 33.027 108.322 31.8544 108.322L28.3213 108.322L28.3213 119L32.8881 119C34.2921 119 35.4956 117.991 35.7733 116.61C36.051 115.229 35.3104 113.832 34.0144 113.304ZM29.4939 109.517L31.8544 109.517C32.8264 109.517 33.6133 110.309 33.6133 111.287C33.6133 112.264 32.8264 113.071 31.8544 113.071L29.4939 113.071L29.4939 109.517ZM32.8881 117.805L29.4939 117.805L29.4939 114.251L32.8881 114.251C33.8601 114.251 34.647 115.058 34.647 116.036C34.647 117.013 33.8601 117.805 32.8881 117.805Z" fill="white"/>
<path d="M56.0297 109.517L56.0297 108.322L49.7194 108.322L49.7194 119L56.0297 119L56.0297 117.805L50.892 117.805L50.892 114.251L55.2891 114.251L55.2891 113.071L50.892 113.071L50.892 109.517L56.0297 109.517Z" fill="white"/>
<path d="M74.0933 108.167L69.9121 119L71.1618 119L71.9641 116.92L76.1916 116.92L76.9938 119L78.2436 119L74.0933 108.167ZM72.427 115.741L74.0933 111.442L75.7441 115.741L72.427 115.741Z" fill="white"/>
<path d="M98.2023 108.322L98.2023 115.353C98.2023 116.719 97.1069 117.821 95.7646 117.821C94.4069 117.821 93.3115 116.719 93.3115 115.353L93.3115 108.322L92.1389 108.322L92.1389 115.353C92.1389 117.37 93.7589 119 95.7646 119C97.7703 119 99.3903 117.37 99.3903 115.353L99.3903 108.322L98.2023 108.322Z" fill="white"/>
<path d="M113.281 108.322L113.281 109.517L115.919 109.517L115.919 119L117.107 119L117.107 109.517L119.761 109.517L119.761 108.322L113.281 108.322Z" fill="white"/>
<path d="M140.011 108.322L137.497 112.482L135.013 108.322L133.639 108.322L136.926 113.816L136.926 119L138.098 119L138.098 113.77L141.385 108.322L140.011 108.322Z" fill="white"/>
</svg>
