<svg width="73" height="58" viewBox="0 0 73 58" fill="none" xmlns="http://www.w3.org/2000/svg">
<path d="M8.02206 7.57286C7.88505 3.63294 10.9543 0 15.1035 0H57.6188C61.768 0 64.8373 3.63294 64.7003 7.57286C64.5685 11.3573 64.7396 16.2598 65.9733 20.2569C67.2111 24.2668 69.2981 26.8007 72.7166 27.1268V30.8193C69.2981 31.1448 67.2111 33.6792 65.9733 37.6891C64.7396 41.6863 64.5685 46.5888 64.7003 50.3732C64.8373 54.3131 61.768 57.9455 57.6188 57.9455H15.1035C10.9543 57.9455 7.88505 54.3125 8.02206 50.3732C8.15387 46.5888 7.98275 41.6863 6.74845 37.6891C5.51127 33.6798 3.41845 31.1453 0 30.8193V27.1268C3.41845 26.8013 5.51127 24.2668 6.74845 20.2569C7.98275 16.2598 8.1533 11.3573 8.02206 7.57286Z" fill="url(#paint0_linear_115_198)"/>
<path d="M38.1568 44.5868C44.8741 44.5868 48.9215 41.2978 48.9215 35.8733C48.9215 31.7726 46.0338 28.8039 41.7452 28.3339V28.1628C44.896 27.6506 47.3681 24.7247 47.3681 21.4566C47.3681 16.8009 43.6924 13.7681 38.0909 13.7681H25.4878V44.5868H38.1568ZM30.3891 17.6768H36.9098C40.4537 17.6768 42.4673 19.2568 42.4673 22.1191C42.4673 25.1727 40.1259 26.8817 35.8813 26.8817H30.3891V17.6768ZM30.3891 40.6786V30.5337H36.8659C41.5042 30.5337 43.9109 32.2421 43.9109 35.5738C43.9109 38.9055 41.5701 40.6786 37.1503 40.6786H30.3891Z" fill="url(#paint1_linear_115_198)"/>
<defs>
<linearGradient id="paint0_linear_115_198" x1="10.8057" y1="1.53377" x2="74.3463" y2="51.9729" gradientUnits="userSpaceOnUse">
<stop stop-color="#9013FE"/>
<stop offset="1" stop-color="#6610F2"/>
</linearGradient>
<linearGradient id="paint1_linear_115_198" x1="27.7055" y1="15.7961" x2="41.9077" y2="39.8161" gradientUnits="userSpaceOnUse">
<stop stop-color="white"/>
<stop offset="1" stop-color="#F1E5FC"/>
</linearGradient>
</defs>
</svg>
