<svg width="340" height="158" viewBox="0 0 340 158" fill="none" xmlns="http://www.w3.org/2000/svg">
<g clip-path="url(#clip0_43_740)">
<path d="M53.7426 43.5933C53.7633 41.562 53.3731 39.5464 52.5941 37.6612C50.7165 33.601 47.4514 30.7432 42.7987 29.0878C47.8592 26.5235 50.3894 22.1685 50.3894 16.0227C50.3894 11.6975 48.8302 8.11889 45.7118 5.28675C41.9509 1.76225 36.5413 0 29.4829 0H0V59.5433H31.1507C34.4641 59.6048 37.7677 59.1724 40.9461 58.2611C49.48 55.8564 53.7455 50.9671 53.7426 43.5933ZM8.64686 7.5348H30.2706C34.1459 7.5348 37.1104 8.49642 39.1639 10.4197C40.042 11.1819 40.7093 12.1458 41.1045 13.2233C41.5606 14.4275 41.7714 15.7063 41.725 16.9886C41.756 18.3574 41.421 19.7107 40.7525 20.9162C38.8808 24.3923 35.1243 26.1289 29.4829 26.1261H8.64686V7.5348ZM8.64686 52.0897V33.336H31.1507C35.8445 33.336 39.4045 34.3247 41.8306 36.3021C42.878 37.1169 43.7176 38.1556 44.284 39.3373C44.8503 40.5189 45.1281 41.8116 45.0957 43.1146C45.0957 45.9496 43.978 48.1407 41.7426 49.6878C39.5071 51.2919 36.2127 52.0925 31.8592 52.0897H8.64686Z" fill="#ECE8F5"/>
<path d="M109.562 0H61.0253V7.61173H100.911V25.8824H71.9692V33.5797H100.911V52.0085H61.0253V59.5433H109.562V0Z" fill="#ECE8F5"/>
<path d="M132.33 33.5797H168.246V59.5433H176.893V0H168.246V25.8824H132.33V0H123.679V59.5433H132.33V33.5797Z" fill="#ECE8F5"/>
<path d="M199.661 0H191.014V59.5433H199.661V0Z" fill="#ECE8F5"/>
<path d="M222.429 11.6206L260.814 59.304L260.994 59.5433H270.521V0H261.875V47.8415L223.221 0H213.778V59.5433H222.429V11.6206Z" fill="#ECE8F5"/>
<path d="M3.52915 134.596H0V158H3.52915V148.174H27.5996V144.422H3.52915V134.596Z" fill="#ECE8F5"/>
<path d="M0 111.573H12V127.322H0V131.113H27.5996V127.322H15.5644V111.573H27.5996V107.782H0V111.573Z" fill="#ECE8F5"/>
<path d="M24.11 97.8028H15.5644V85.1137H12V97.8028H3.52915V80.3142H0V101.594H27.5996V80.3142H24.11V97.8028Z" fill="#ECE8F5"/>
<path d="M169.593 123.647C176.481 120.923 179.924 115.794 179.921 108.261C179.921 102.44 177.891 97.8455 173.831 94.4777C169.723 91.0587 164.34 89.3491 157.681 89.3491H126.266V148.892H134.913V126.532H156.092L170.297 148.892H180.444L164.823 125.168C166.461 124.815 168.058 124.305 169.593 123.647ZM134.913 119.078V96.8796H156.801C161.154 96.8796 164.684 97.8954 167.388 99.9269C170.029 101.901 171.349 104.679 171.349 108.261C171.349 110.452 170.879 112.214 169.941 113.548C167.594 117.235 163.092 119.078 156.436 119.078H134.913Z" fill="#ECE8F5"/>
<path d="M199.683 89.3491H191.036V148.892H199.683V89.3491Z" fill="#ECE8F5"/>
<path d="M222.455 137.191V89.3491H213.804V148.892H223.336L223.512 148.649L261.901 100.97V148.892H270.548V89.3491H261.109L222.455 137.191Z" fill="#ECE8F5"/>
<path d="M312.114 111.065L337.439 89.3491H325.175L293.316 116.514V89.3491H284.669V148.892H293.316V127.015L305.76 116.437L329.32 148.892H340L312.114 111.065Z" fill="#ECE8F5"/>
<path d="M115.077 119.164V119.074L114.975 119.164H115.077Z" fill="#ECE8F5"/>
<path d="M299.996 57.5389C303.598 58.8888 307.43 59.5687 311.292 59.5433H339.014V0H311.292C307.426 0.00861426 303.595 0.715867 299.996 2.08564C296.428 3.40851 293.161 5.39447 290.376 7.93227C284.216 13.5994 281.135 20.892 281.135 29.8101C281.135 38.6256 284.216 45.8912 290.376 51.6068C293.151 54.1775 296.42 56.1931 299.996 57.5389ZM295.674 14.1037C299.732 9.72444 305.024 7.5348 311.551 7.5348H330.35V52.0897H311.551C305.083 52.0897 299.789 49.9001 295.67 45.5208C291.727 41.19 289.756 35.9531 289.756 29.8101C289.759 23.5617 291.732 18.3263 295.674 14.1037Z" fill="#ECE8F5"/>
<path d="M60.2288 122.467H42.1034C41.9978 122.467 41.901 122.467 41.7998 122.467C41.112 122.554 40.4815 122.884 40.0285 123.395C39.5756 123.905 39.332 124.559 39.3443 125.232V157.91H75.4587C80.4974 157.9 85.4902 156.979 90.1826 155.196C94.2139 153.686 97.9596 151.537 101.267 148.837L71.7844 126.472C68.5284 123.874 64.4427 122.458 60.2288 122.467Z" fill="#ECE8F5"/>
<path d="M90.1826 82.9127C85.486 81.1555 80.4917 80.2698 75.4587 80.3014H39.3443V112.783C39.3244 113.462 39.5651 114.124 40.0197 114.641C40.4743 115.157 41.1103 115.491 41.8042 115.578C41.9054 115.578 42.0022 115.578 42.1078 115.578H60.2332C64.4412 115.578 68.5184 114.158 71.7668 111.56L101.417 89.4901V148.73C101.857 148.354 102.297 147.974 102.737 147.576C110.79 140.197 114.815 130.691 114.812 119.061C114.812 107.573 110.787 98.1034 102.737 90.6526C99.1147 87.2987 94.8491 84.6689 90.1826 82.9127Z" fill="#ECE8F5"/>
</g>
<defs>
<clipPath id="clip0_43_740">
<rect width="340" height="158" fill="white"/>
</clipPath>
</defs>
</svg>
