<svg width="220" height="220" viewBox="0 0 220 220" fill="none" xmlns="http://www.w3.org/2000/svg">
<path d="M110 0C49.2485 0 0 49.2485 0 110C0 170.752 49.2485 220 110 220C170.752 220 220 170.757 220 110C220 49.2434 170.757 0 110 0ZM110 214.555C52.2546 214.555 5.4499 167.743 5.4499 110.005C5.4499 52.2674 52.2597 5.45501 110 5.45501C167.74 5.45501 214.55 52.2648 214.55 110.005C214.55 167.745 167.743 214.555 110 214.555Z" fill="#ECE8F5"/>
<path d="M51.5466 36.9835L46.9838 30.8434L52.0119 31.825L52.4694 26.7662L57.0323 32.9063L58.0523 32.1497L52.3058 24.4171L51.1913 25.2453L50.859 30.2734L45.8948 29.1793L44.7803 30.0075L50.5267 37.7402L51.5466 36.9835Z" fill="#ECE8F5"/>
<path d="M58.4073 20.7237L57.3116 21.3668L62.1885 29.6758L63.2841 29.0327L58.4073 20.7237Z" fill="#ECE8F5"/>
<path d="M65.4651 21.2727C65.9293 21.4387 66.4228 21.5066 66.9145 21.4721C67.463 21.4463 68.0085 21.3753 68.5454 21.2599L68.801 21.2113C69.3293 21.0989 69.763 21.0137 70.1021 20.9557C70.5258 20.8924 70.9566 20.8924 71.3802 20.9557C71.5408 20.9768 71.693 21.04 71.8213 21.1387C71.9497 21.2374 72.0497 21.3683 72.1113 21.5181C72.551 22.4673 72.0023 23.2972 70.4651 24.0079C69.8497 24.3252 69.1633 24.4801 68.4712 24.4578C68.1797 24.449 67.8962 24.3605 67.6515 24.2019C67.4068 24.0432 67.2102 23.8205 67.0832 23.558L67.0295 23.4685L65.8511 24.0283L65.9125 24.128C66.1098 24.4986 66.38 24.8255 66.7068 25.089C67.0336 25.3526 67.4103 25.5474 67.8143 25.6617C68.6664 25.8901 69.7178 25.7129 70.9687 25.13C72.0338 24.6358 72.7777 24.03 73.2003 23.3126C73.4086 22.9595 73.5233 22.5592 73.5336 22.1494C73.5439 21.7397 73.4494 21.3341 73.2591 20.9711C73.1096 20.6292 72.8701 20.3344 72.5663 20.1178C72.2624 19.9013 71.9055 19.7713 71.5336 19.7415C71.1427 19.6901 70.7471 19.6858 70.3552 19.7287C69.8849 19.785 69.4733 19.8514 69.1205 19.9281C68.8496 19.9869 68.4508 20.061 67.9242 20.1531C67.5682 20.2248 67.2079 20.2726 66.8455 20.2962C66.5703 20.3096 66.2948 20.2777 66.03 20.2016C65.9354 20.1738 65.8475 20.1267 65.7719 20.0634C65.6962 20 65.6345 19.9218 65.5904 19.8335C65.504 19.655 65.4487 19.4631 65.4268 19.266C65.4086 19.0711 65.4467 18.875 65.5367 18.7011C65.6517 18.4483 65.821 18.224 66.0326 18.0442C66.3296 17.7708 66.6688 17.5472 67.0372 17.3821C67.3955 17.2091 67.7756 17.0852 68.1671 17.014C69.0669 16.876 69.7008 17.1162 70.0894 17.74L70.1277 17.8218L71.3036 17.2773L71.2499 17.1904C71.0785 16.8547 70.8356 16.5605 70.5384 16.3287C70.2412 16.0969 69.8969 15.9329 69.5295 15.8484C68.6758 15.626 67.6967 15.7666 66.6001 16.2752C65.5035 16.7839 64.7673 17.4 64.4452 18.103C64.2794 18.4393 64.1932 18.8093 64.1932 19.1842C64.1932 19.5592 64.2794 19.9292 64.4452 20.2655C64.5387 20.4934 64.6772 20.7001 64.8525 20.8731C65.0277 21.0462 65.2361 21.1821 65.4651 21.2727Z" fill="#ECE8F5"/>
<path d="M78.7756 20.3529C79.8697 21.0192 81.1018 21.1394 82.4719 20.7133C83.4236 20.4401 84.2629 19.8695 84.8671 19.085C85.3379 18.4729 85.6323 17.7436 85.7183 16.9761L84.4862 16.8151V16.8713C84.4365 17.4602 84.2072 18.0197 83.8293 18.4741C83.4445 18.9451 82.9271 19.2898 82.3441 19.4633C81.204 19.8178 80.2284 19.7505 79.4172 19.2614C78.6096 18.7428 78.0258 17.9401 77.7812 17.0119C77.454 15.957 77.4787 15.0308 77.8554 14.2333C78.0489 13.8258 78.3248 13.4628 78.6657 13.1673C79.1063 12.8163 79.6119 12.5557 80.1534 12.4005C80.7328 12.2057 81.3586 12.1976 81.9428 12.3775C82.3833 12.5117 82.7884 12.7422 83.1289 13.0523L84.0568 12.2369C83.6048 11.7983 83.057 11.471 82.4566 11.2808C81.5126 10.9813 80.4981 10.9875 79.5578 11.2987C78.9383 11.4647 78.3627 11.7645 77.8715 12.177C77.3804 12.5895 76.9857 13.1047 76.7153 13.6863C76.1853 14.7871 76.135 16.0192 76.5645 17.3826C76.8994 18.6167 77.6895 19.678 78.7756 20.3529Z" fill="#ECE8F5"/>
<path d="M97.6584 17.2678L97.4514 16.0664L91.6768 17.071L91.1656 14.1339L95.3553 13.4054L95.1431 12.1784L90.9534 12.9069L90.4473 9.99278L96.2218 8.99073L96.0097 7.77652L88.9851 8.9984L90.6339 18.4897L97.6584 17.2678Z" fill="#ECE8F5"/>
<path d="M108.32 16.483L108.251 15.2662L103.126 15.5551L102.651 7.15274L101.383 7.22432L101.925 16.8434L108.32 16.483Z" fill="#ECE8F5"/>
<path d="M113.957 13.8545L118.487 14.1434L119.466 16.9552L120.861 17.0447L117.398 7.15717L115.923 7.06259L111.235 16.4184L112.633 16.5079L113.957 13.8545ZM116.564 8.59122L118.067 12.9368L114.519 12.7093L116.564 8.59122Z" fill="#ECE8F5"/>
<path d="M131.472 17.7151L125.92 16.6543L132.822 10.5934L132.84 10.5704L133.057 9.42525L125.928 8.06277L125.7 9.24631L131.253 10.3071L124.361 16.3808L124.33 16.4038L124.118 17.5234L131.25 18.8859L131.472 17.7151Z" fill="#ECE8F5"/>
<path d="M138.107 10.7742L135.43 20.0294L136.65 20.3823L139.327 11.1272L138.107 10.7742Z" fill="#ECE8F5"/>
<path d="M145.297 23.4796C145.895 23.7483 146.545 23.8872 147.201 23.8872C147.857 23.8872 148.506 23.7483 149.105 23.4796C149.694 23.2203 150.224 22.8468 150.667 22.3808C151.11 21.9148 151.456 21.3655 151.685 20.7649C151.944 20.1766 152.082 19.5422 152.092 18.8994C152.102 18.2566 151.982 17.6184 151.741 17.0225C151.216 15.8092 150.237 14.8499 149.013 14.3505C147.789 13.8511 146.418 13.8514 145.194 14.3513C144.608 14.6109 144.08 14.9853 143.641 15.4524C143.202 15.9196 142.861 16.47 142.638 17.0711C142.379 17.6584 142.24 18.2912 142.228 18.9328C142.217 19.5744 142.332 20.2119 142.569 20.8083C142.812 21.4196 143.18 21.9732 143.649 22.4333C144.119 22.8934 144.68 23.2499 145.297 23.4796ZM143.809 17.5517C144.138 16.6431 144.814 15.9016 145.688 15.4888C146.605 15.1184 147.631 15.1202 148.548 15.4939C149.464 15.8677 150.199 16.5838 150.596 17.4903C150.767 17.9386 150.848 18.4164 150.833 18.8961C150.818 19.3757 150.708 19.8476 150.509 20.2843C150.345 20.7352 150.093 21.1492 149.769 21.5024C149.444 21.8556 149.053 22.141 148.617 22.3421C147.699 22.713 146.673 22.7111 145.756 22.3368C144.839 21.9626 144.105 21.2454 143.709 20.338C143.375 19.4322 143.411 18.4313 143.809 17.5517Z" fill="#ECE8F5"/>
<path d="M158.625 21.145L159.594 30.6542L159.596 30.7002L160.805 31.4083L165.675 23.0954L164.578 22.4513L160.665 29.1307L159.678 19.5832L158.479 18.8828L153.612 27.1956L154.709 27.8373L158.625 21.145Z" fill="#ECE8F5"/>
<path d="M170.355 38.5017L171.102 37.538L166.475 33.944L168.303 31.5897L171.661 34.197L172.426 33.2154L169.067 30.6055L170.879 28.2717L175.509 31.8658L176.263 30.8944L170.631 26.5207L164.724 34.128L170.355 38.5017Z" fill="#ECE8F5"/>
<path d="M59.8083 189.126L59.2025 190.174L62.0016 191.798L57.8605 198.937L58.929 199.558L63.0701 192.416L65.8692 194.039L66.475 192.994L59.8083 189.126Z" fill="#ECE8F5"/>
<path d="M74.182 196.526L70.0102 194.749L66.3011 203.456L67.4489 203.944L68.842 200.665L71.6539 201.863L72.1473 205.938L73.4944 206.511L72.8988 202.165C73.1393 202.206 73.3835 202.222 73.6273 202.214C74.7112 202.203 75.4874 201.648 75.9561 200.547C76.135 200.181 76.2323 199.78 76.2411 199.373C76.25 198.965 76.1701 198.561 76.0072 198.188C75.6347 197.42 74.9812 196.825 74.182 196.526ZM74.8185 200.066C74.717 200.341 74.5397 200.581 74.3073 200.759C73.7654 201.166 73.053 201.181 72.1703 200.803L69.3098 199.586L70.6928 196.339L73.5992 197.577C74.1157 197.77 74.5468 198.141 74.816 198.622C74.9288 198.846 74.9878 199.093 74.9882 199.344C74.9887 199.595 74.9306 199.842 74.8185 200.066Z" fill="#ECE8F5"/>
<path d="M84.2382 200.035L77.8477 208.082L79.1718 208.45L80.9842 206.165L85.2812 207.356L85.6544 210.25L86.9785 210.618L85.634 200.424L84.2382 200.035ZM81.7561 205.176L84.5501 201.63L85.1227 206.109L81.7561 205.176Z" fill="#ECE8F5"/>
<path d="M98.8496 203.318C98.3677 203.033 97.8343 202.847 97.2801 202.768L93.3179 202.227L92.0398 211.603L96.002 212.147C96.5585 212.228 97.1256 212.195 97.6691 212.051C98.2126 211.906 98.7211 211.653 99.164 211.306C99.6658 210.913 100.083 210.422 100.39 209.863C100.698 209.304 100.889 208.689 100.953 208.055C101.146 206.65 100.861 205.442 100.1 204.43C99.7621 203.979 99.337 203.601 98.8496 203.318ZM99.7162 207.886C99.6171 208.788 99.1971 209.625 98.5326 210.243C98.2119 210.539 97.8279 210.758 97.4098 210.884C96.9917 211.01 96.5505 211.039 96.1195 210.969L93.4304 210.601L94.3915 203.584L97.0807 203.952C97.5148 203.998 97.9326 204.143 98.3018 204.377C98.6709 204.61 98.9817 204.924 99.21 205.297C99.6893 206.069 99.8693 206.99 99.7162 207.886Z" fill="#ECE8F5"/>
<path d="M105.934 203.529L105.592 212.986L106.839 213.032L107.18 203.575L105.934 203.529Z" fill="#ECE8F5"/>
<path d="M113.579 211.879L118.73 204.471L118.74 204.445L118.679 203.3L111.557 203.683L111.618 204.867L117.165 204.568L112.027 211.989L112.004 212.014L112.063 213.134L119.187 212.75L119.123 211.582L113.579 211.879Z" fill="#ECE8F5"/>
<path d="M124.23 202.567L122.995 202.747L124.36 212.111L125.594 211.931L124.23 202.567Z" fill="#ECE8F5"/>
<path d="M136.869 201.086C135.746 200.437 134.413 200.253 133.156 200.574C131.9 200.894 130.818 201.694 130.143 202.801C129.83 203.349 129.63 203.954 129.555 204.581C129.48 205.207 129.531 205.842 129.706 206.449C129.846 207.064 130.106 207.645 130.471 208.158C130.837 208.672 131.3 209.108 131.835 209.442C132.959 210.091 134.291 210.275 135.549 209.954C136.806 209.634 137.888 208.834 138.563 207.727C138.875 207.178 139.075 206.572 139.152 205.945C139.229 205.318 139.181 204.682 139.011 204.074C138.872 203.458 138.611 202.876 138.243 202.362C137.875 201.849 137.408 201.415 136.869 201.086ZM137.526 207.113C137.015 207.941 136.203 208.537 135.26 208.776C134.318 209.014 133.32 208.876 132.477 208.392C131.708 207.846 131.158 207.045 130.924 206.132C130.69 205.219 130.787 204.252 131.199 203.404C131.709 202.577 132.522 201.981 133.464 201.742C134.406 201.503 135.405 201.641 136.247 202.126C137.022 202.667 137.577 203.468 137.812 204.383C138.046 205.298 137.945 206.267 137.526 207.113Z" fill="#ECE8F5"/>
<path d="M148.351 195.488L151.255 202.515L143.195 197.617L141.935 198.139L145.55 206.886L146.703 206.408L143.794 199.368L151.81 204.256L151.848 204.281L153.119 203.757L149.504 195.01L148.351 195.488Z" fill="#ECE8F5"/>
<path d="M159.026 199.366L157.564 196.828L161.186 194.744L160.575 193.684L156.953 195.769L155.506 193.252L160.496 190.378L159.89 189.33L153.819 192.827L158.543 201.028L164.614 197.533L164.016 196.495L159.026 199.366Z" fill="#ECE8F5"/>
<path d="M52.0552 188.029C51.7234 188.029 51.399 188.127 51.1229 188.311C50.8468 188.495 50.6314 188.756 50.5041 189.063C50.3768 189.369 50.3432 189.706 50.4076 190.032C50.4721 190.357 50.6316 190.656 50.866 190.891C51.1004 191.126 51.3992 191.286 51.7245 191.351C52.0499 191.416 52.3872 191.383 52.6938 191.256C53.0003 191.129 53.2624 190.914 53.4467 190.638C53.6311 190.362 53.7295 190.038 53.7295 189.706C53.7295 189.262 53.5532 188.836 53.2393 188.521C52.9253 188.207 52.4995 188.03 52.0552 188.029Z" fill="#ECE8F5"/>
<path d="M167.945 188.029C167.613 188.029 167.289 188.127 167.013 188.311C166.736 188.495 166.521 188.756 166.394 189.063C166.266 189.369 166.233 189.706 166.297 190.032C166.362 190.357 166.521 190.656 166.756 190.891C166.99 191.126 167.289 191.286 167.614 191.351C167.94 191.416 168.277 191.383 168.583 191.256C168.89 191.129 169.152 190.914 169.336 190.638C169.521 190.362 169.619 190.038 169.619 189.706C169.619 189.262 169.443 188.836 169.129 188.521C168.815 188.207 168.389 188.03 167.945 188.029Z" fill="#ECE8F5"/>
<path d="M41.9401 40.7469C42.2711 40.7464 42.5946 40.6477 42.8696 40.4634C43.1446 40.2792 43.3588 40.0175 43.4851 39.7115C43.6115 39.4055 43.6443 39.0689 43.5794 38.7443C43.5145 38.4197 43.3548 38.1216 43.1206 37.8877C42.8863 37.6538 42.5879 37.4946 42.2632 37.4302C41.9385 37.3658 41.602 37.3991 41.2962 37.5259C40.9904 37.6527 40.7291 37.8673 40.5452 38.1426C40.3613 38.4179 40.2632 38.7415 40.2632 39.0725C40.2632 39.2926 40.3066 39.5106 40.3909 39.7139C40.4752 39.9172 40.5987 40.1019 40.7545 40.2574C40.9102 40.4129 41.0951 40.5362 41.2986 40.6201C41.502 40.7041 41.72 40.7472 41.9401 40.7469Z" fill="#ECE8F5"/>
<path d="M178.06 40.7469C178.391 40.7469 178.715 40.6487 178.99 40.4647C179.265 40.2807 179.48 40.0192 179.607 39.7133C179.733 39.4073 179.767 39.0707 179.702 38.7459C179.637 38.4211 179.478 38.1228 179.244 37.8886C179.01 37.6544 178.711 37.495 178.386 37.4304C178.062 37.3658 177.725 37.3989 177.419 37.5256C177.113 37.6524 176.852 37.867 176.668 38.1423C176.484 38.4177 176.385 38.7414 176.385 39.0725C176.385 39.5166 176.562 39.9425 176.876 40.2565C177.19 40.5705 177.616 40.7469 178.06 40.7469Z" fill="#ECE8F5"/>
<path d="M59.1435 117.425C59.1619 116.703 59.0154 115.986 58.7151 115.329C58.4147 114.673 57.9685 114.093 57.4104 113.634C56.1306 112.535 54.2398 111.985 51.7381 111.983H39.7826V122.423H52.1113C54.4239 122.423 56.174 121.976 57.3618 121.083C58.5513 120.223 59.1452 119.003 59.1435 117.425Z" fill="#ECE8F5"/>
<path d="M110 18.0317C59.2075 18.0317 18.0316 59.2076 18.0316 110C18.0316 160.792 59.2075 201.968 110 201.968C160.792 201.968 201.968 160.787 201.968 110C201.968 59.2127 160.787 18.0317 110 18.0317ZM99.6369 35.2761H119.632V38.2132H111.24V58.7526H108.034V38.2234H99.6369V35.2761ZM113.103 79.1999C112.807 79.1999 112.515 79.1999 112.214 79.1999C111.611 79.1904 111.011 79.115 110.424 78.975C109.836 78.842 109.261 78.6605 108.691 78.4842C108.121 78.3078 107.548 78.1518 106.968 78.0317L106.495 77.9422L106.511 77.9269C106.871 77.6202 107.198 77.2776 107.551 76.9632C107.618 76.9074 107.67 76.8367 107.705 76.7567C107.739 76.6768 107.754 76.5899 107.748 76.5031C107.748 75.8768 107.748 75.2505 107.748 74.6242C107.748 74.0414 108.06 73.7244 108.64 73.7193H109.841H111.045C111.626 73.7193 111.932 74.0414 111.938 74.6242C111.938 75.2505 111.95 75.8768 111.938 76.5031C111.932 76.5899 111.947 76.6768 111.981 76.7567C112.015 76.8367 112.068 76.9074 112.134 76.9632C112.487 77.2776 112.814 77.6202 113.175 77.9269C113.291 78.0155 113.381 78.1329 113.438 78.2674C113.494 78.402 113.515 78.549 113.497 78.6938C113.479 78.8548 113.466 79.0159 113.451 79.1769C113.341 79.2025 113.221 79.2076 113.103 79.2101V79.1999ZM113.397 79.9821C113.382 80.1662 113.364 80.3477 113.346 80.5317C113.14 82.6091 112.93 84.6864 112.717 86.7638C112.594 87.9985 112.479 89.2306 112.349 90.4627C112.283 91.1018 111.971 91.3702 111.327 91.3702H108.384C107.733 91.3702 107.421 91.1018 107.362 90.4627C107.234 89.2306 107.106 87.9985 106.994 86.7638L106.503 81.907H106.575C107.244 81.9356 107.914 81.8919 108.574 81.7766C109.252 81.6565 109.92 81.4856 110.573 81.2653C111.229 81.0455 111.869 80.795 112.485 80.5189C112.643 80.4514 112.797 80.3754 112.947 80.2914C113.024 80.2505 113.098 80.202 113.175 80.1534C113.211 80.1304 113.249 80.1048 113.285 80.0767C113.323 80.0517 113.36 80.0244 113.395 79.9949L113.397 79.9821ZM35.1763 126.562V93.4279H50.8333C54.5824 93.4279 57.4582 94.4095 59.4606 96.3727C61.117 97.9491 61.9452 99.9412 61.9452 102.349C61.9452 105.769 60.6015 108.194 57.914 109.622C60.3833 110.542 62.1173 112.133 63.116 114.394C63.5303 115.445 63.7378 116.565 63.7269 117.694C63.7269 121.796 61.4604 124.517 56.9273 125.856C55.2413 126.365 53.4861 126.606 51.7254 126.572L35.1763 126.562ZM111.575 183.175H113.497C113.7 183.175 113.895 183.256 114.039 183.399C114.183 183.543 114.264 183.738 114.264 183.942C114.264 184.145 114.183 184.34 114.039 184.484C113.895 184.628 113.7 184.709 113.497 184.709H105.777C105.574 184.709 105.379 184.628 105.235 184.484C105.091 184.34 105.01 184.145 105.01 183.942C105.01 183.738 105.091 183.543 105.235 183.399C105.379 183.256 105.574 183.175 105.777 183.175H107.707C108.013 183.175 108.307 183.053 108.524 182.836C108.741 182.62 108.862 182.326 108.862 182.019V176.764C108.861 175.173 108.308 173.632 107.298 172.403L98.0623 161.189H121.217L111.984 172.403C110.976 173.633 110.427 175.174 110.429 176.764V182.019C110.429 182.324 110.55 182.616 110.764 182.833C110.979 183.049 111.27 183.172 111.575 183.175ZM107.74 129.53C107.74 128.944 108.052 128.63 108.632 128.622H109.834H111.038C111.618 128.622 111.925 128.944 111.93 129.53C111.93 130.156 111.943 130.78 111.93 131.406C111.924 131.493 111.939 131.58 111.973 131.66C112.007 131.74 112.06 131.81 112.127 131.866C112.479 132.183 112.807 132.523 113.167 132.83C113.283 132.919 113.373 133.036 113.43 133.17C113.486 133.305 113.507 133.452 113.489 133.597C113.471 133.758 113.458 133.919 113.443 134.08C113.323 134.08 113.203 134.095 113.085 134.098C112.789 134.098 112.497 134.098 112.196 134.098C111.593 134.088 110.993 134.013 110.406 133.873C109.818 133.74 109.243 133.558 108.673 133.384C108.103 133.211 107.531 133.05 106.95 132.929L106.477 132.84L106.493 132.825C106.853 132.518 107.18 132.178 107.533 131.861C107.6 131.805 107.652 131.734 107.687 131.654C107.721 131.575 107.736 131.488 107.73 131.401C107.74 130.78 107.748 130.156 107.753 129.53H107.74ZM106.546 136.82C107.216 136.847 107.886 136.802 108.545 136.687C109.224 136.567 109.892 136.396 110.544 136.176C111.194 135.96 111.832 135.711 112.456 135.429C112.615 135.363 112.769 135.288 112.919 135.205C112.996 135.161 113.07 135.112 113.147 135.066L113.257 134.99C113.295 134.964 113.331 134.936 113.366 134.908L113.384 134.893C113.369 135.077 113.351 135.261 113.333 135.442C113.136 137.513 112.934 139.589 112.73 141.672C112.607 142.904 112.492 144.136 112.362 145.368C112.295 146.007 111.984 146.276 111.339 146.276H108.384C107.733 146.276 107.421 146.007 107.362 145.368C107.234 144.136 107.106 142.904 106.994 141.672L106.503 136.815L106.546 136.82ZM164.412 164.427C161.692 167.147 156.529 166.393 152.876 162.743C150.616 160.481 149.466 157.63 149.553 155.156C149.587 153.912 149.364 152.674 148.897 151.521C148.431 150.367 147.732 149.322 146.843 148.451L110 111.58L73.1313 148.448C72.2408 149.32 71.5403 150.367 71.074 151.523C70.6077 152.678 70.3856 153.918 70.4217 155.164C70.5214 157.648 69.3711 160.488 67.0986 162.751C63.4483 166.401 58.2847 167.155 55.5648 164.435C52.845 161.715 53.5991 156.552 57.2494 152.899C59.5091 150.639 62.3619 149.489 64.8338 149.576C66.0782 149.611 67.3163 149.388 68.4706 148.922C69.6249 148.455 70.6703 147.755 71.5413 146.866L108.42 110L69.8849 71.4647C68.8641 70.4441 67.7771 69.4919 66.6308 68.6145L54.6676 59.816C54.4645 59.6748 54.2947 59.4908 54.1704 59.2769C54.0461 59.063 53.9701 58.8245 53.948 58.5781C53.9258 58.3317 53.9579 58.0834 54.042 57.8508C54.1262 57.6182 54.2603 57.4068 54.435 57.2316L57.2315 54.4479C57.4067 54.2732 57.6181 54.1391 57.8507 54.0549C58.0833 53.9708 58.3316 53.9387 58.578 53.9608C58.8244 53.983 59.0629 54.0589 59.2768 54.1833C59.4907 54.3076 59.6747 54.4773 59.8159 54.6805L68.6144 66.6437C69.4917 67.7893 70.4429 68.8763 71.4621 69.8978L110 108.42L148.535 69.885C149.556 68.8642 150.508 67.7771 151.385 66.6309L160.184 54.6677C160.325 54.4646 160.509 54.2949 160.722 54.1706C160.936 54.0463 161.174 53.9703 161.421 53.9482C161.667 53.926 161.915 53.9581 162.147 54.0422C162.38 54.1263 162.591 54.2605 162.766 54.4351L165.578 57.2316C165.752 57.4068 165.886 57.6182 165.971 57.8508C166.055 58.0834 166.087 58.3317 166.065 58.5781C166.042 58.8245 165.967 59.063 165.842 59.2769C165.718 59.4908 165.548 59.6748 165.345 59.816L153.374 68.6145C152.229 69.4918 151.142 70.443 150.12 71.4622L111.58 110L148.448 146.869C149.32 147.759 150.367 148.46 151.522 148.926C152.678 149.392 153.918 149.614 155.164 149.578C157.648 149.479 160.488 150.629 162.75 152.901C166.391 156.541 167.145 161.705 164.425 164.425L164.412 164.427ZM79.2433 102.081C79.2433 101.498 79.5551 101.181 80.1354 101.176C80.5367 101.176 80.9355 101.176 81.3368 101.176C81.7382 101.176 82.1395 101.176 82.5383 101.176C83.1211 101.176 83.4278 101.498 83.4329 102.081C83.4329 102.707 83.4329 103.333 83.4329 103.96C83.4275 104.047 83.4427 104.134 83.4774 104.214C83.512 104.294 83.5651 104.364 83.6323 104.42C83.9851 104.734 84.3123 105.077 84.6702 105.383C84.7867 105.472 84.8779 105.589 84.9344 105.724C84.991 105.858 85.0109 106.005 84.9922 106.15C84.9769 106.311 84.9616 106.475 84.9488 106.636L84.5909 106.651C84.2918 106.651 84.003 106.651 83.6988 106.651C83.0961 106.639 82.4964 106.564 81.9094 106.426C81.324 106.293 80.7489 106.109 80.1763 105.936C79.6037 105.762 79.0362 105.603 78.4534 105.483C78.2975 105.45 78.139 105.422 77.9805 105.394L77.9984 105.378C78.3563 105.072 78.686 104.729 79.0362 104.415C79.1034 104.359 79.1565 104.288 79.1912 104.209C79.2258 104.129 79.241 104.042 79.2356 103.955C79.2203 103.333 79.2254 102.707 79.2433 102.081ZM78.0469 109.371C78.7161 109.399 79.3863 109.354 80.0459 109.238C80.7246 109.117 81.3936 108.946 82.0475 108.727C82.7019 108.507 83.3409 108.257 83.957 107.981C84.1151 107.913 84.2696 107.837 84.4196 107.753C84.4963 107.71 84.573 107.664 84.6472 107.615L84.7596 107.538L84.867 107.457L84.8849 107.444C84.8695 107.625 84.8542 107.809 84.8363 107.993C84.6293 110.069 84.4145 112.147 84.2075 114.225C84.0822 115.458 83.9672 116.692 83.8394 117.924C83.7729 118.563 83.4585 118.829 82.8169 118.832H79.8542C79.2049 118.832 78.8905 118.563 78.8317 117.924C78.7039 116.692 78.5889 115.458 78.4636 114.225C78.3034 112.608 78.1398 110.989 77.9728 109.369L78.0469 109.371ZM141.615 106.656C141.316 106.656 141.028 106.656 140.723 106.656C140.121 106.644 139.521 106.569 138.934 106.431C138.349 106.299 137.773 106.115 137.201 105.941C136.628 105.767 136.061 105.608 135.478 105.488C135.322 105.455 135.164 105.427 135.005 105.399L135.023 105.383C135.381 105.077 135.708 104.734 136.061 104.42C136.128 104.364 136.181 104.294 136.216 104.214C136.25 104.134 136.266 104.047 136.26 103.96C136.26 103.333 136.26 102.707 136.26 102.081C136.26 101.498 136.572 101.181 137.155 101.176C137.554 101.176 137.955 101.176 138.356 101.176C138.758 101.176 139.159 101.176 139.558 101.176C140.138 101.176 140.445 101.498 140.452 102.081C140.452 102.707 140.452 103.333 140.452 103.96C140.447 104.047 140.462 104.134 140.497 104.214C140.531 104.294 140.585 104.364 140.652 104.42C141.002 104.734 141.332 105.077 141.69 105.383C141.806 105.472 141.897 105.589 141.954 105.724C142.01 105.858 142.03 106.005 142.012 106.15C141.996 106.311 141.981 106.475 141.968 106.636L141.615 106.656ZM141.907 107.441C141.892 107.623 141.876 107.807 141.858 107.991C141.651 110.066 141.437 112.145 141.229 114.223C141.104 115.455 140.989 116.69 140.861 117.922C140.795 118.561 140.48 118.827 139.839 118.829H136.897C136.247 118.829 135.933 118.561 135.874 117.922C135.746 116.69 135.619 115.455 135.506 114.223C135.344 112.606 135.181 110.987 135.015 109.366H135.087C135.756 109.394 136.426 109.349 137.086 109.233C137.765 109.112 138.433 108.941 139.087 108.722C139.742 108.502 140.381 108.252 140.997 107.975C141.155 107.908 141.309 107.832 141.46 107.748C141.536 107.705 141.613 107.659 141.687 107.61L141.799 107.533L141.907 107.451V107.441ZM171.196 126.669C169.281 126.682 167.384 126.3 165.624 125.547C163.833 124.774 162.219 123.643 160.882 122.224C157.835 119.024 156.311 114.956 156.311 110.02C156.311 105.024 157.835 100.941 160.882 97.771C162.23 96.3665 163.85 95.2522 165.644 94.4964C167.403 93.7337 169.299 93.3371 171.217 93.3308H184.882V126.669H171.196Z" fill="#ECE8F5"/>
<path d="M56.848 105.061C57.201 104.387 57.3769 103.635 57.3593 102.875C57.3845 102.161 57.2735 101.449 57.0321 100.777C56.8247 100.181 56.4735 99.645 56.0096 99.2173C54.9155 98.1454 53.3366 97.6103 51.2729 97.612H39.7826V107.96H50.846C53.847 107.966 55.8477 107 56.848 105.061Z" fill="#ECE8F5"/>
<path d="M163.502 101.226C161.559 103.592 160.587 106.524 160.585 110.022C160.585 113.463 161.558 116.394 163.502 118.816C164.434 119.993 165.627 120.939 166.987 121.577C168.346 122.216 169.835 122.531 171.337 122.497H180.606V97.548H171.337C168.116 97.548 165.504 98.7741 163.502 101.226Z" fill="#ECE8F5"/>
<path d="M114.473 164.223C113.449 164.321 112.416 164.272 111.406 164.077C110.015 163.821 108.64 163.497 107.244 163.277C107.014 163.241 106.784 163.21 106.554 163.19C105.245 163.065 103.781 163.144 102.579 163.729C102.457 163.791 102.515 163.826 102.579 163.924C102.643 164.021 102.687 164.067 102.745 164.138C102.983 164.43 103.257 164.701 103.492 164.99L105.961 167.914L108.474 170.894L109.624 172.257L116.782 163.775C116.025 163.982 115.253 164.132 114.473 164.223Z" fill="#ECE8F5"/>
</svg>
