<svg width="25" height="28" viewBox="0 0 25 28" fill="none" xmlns="http://www.w3.org/2000/svg">
<path d="M2.246 25.201L0 0H24.688L22.439 25.197L12.329 28L2.246 25.201Z" fill="#264DE4"/>
<path d="M12.344 25.858L20.514 23.593L22.436 2.06104H12.344V25.858Z" fill="#2965F1"/>
<path d="M12.344 11.1911H16.434L16.716 8.02606H12.344V4.93506H20.094L19.261 14.2821H12.344V11.1911Z" fill="white"/>
<path d="M12.363 19.2179L12.349 19.2219L8.90698 18.2919L8.68699 15.8269H5.58398L6.01698 20.6799L12.348 22.4379L12.363 22.4339V19.2179Z" fill="#EBEBEB"/>
<path d="M16.171 14.1509L15.799 18.2899L12.352 19.2199V22.4359L18.688 20.6799L19.272 14.1509H16.171Z" fill="white"/>
<path d="M12.355 4.93506V8.02606H4.889L4.612 4.93506H12.355ZM12.344 11.1911V14.2821H8.945L8.669 11.1911H12.344Z" fill="#EBEBEB"/>
</svg>
