<svg width="43" height="65" viewBox="0 0 43 65" fill="none" xmlns="http://www.w3.org/2000/svg">
<g clip-path="url(#clip0_59_496)">
<path d="M10.75 64.9999C16.684 64.9999 21.5 60.1466 21.5 54.1666V43.3333H10.75C4.816 43.3333 0 48.1866 0 54.1666C0 60.1466 4.816 64.9999 10.75 64.9999Z" fill="#0ACF83"/>
<path d="M0 32.5001C0 26.5201 4.816 21.6667 10.75 21.6667H21.5V43.3334H10.75C4.816 43.3334 0 38.4801 0 32.5001Z" fill="#A259FF"/>
<path d="M0 10.8333C0 4.85333 4.816 0 10.75 0H21.5V21.6667H10.75C4.816 21.6667 0 16.8133 0 10.8333Z" fill="#F24E1E"/>
<path d="M21.5 0H32.25C38.184 0 43 4.85333 43 10.8333C43 16.8133 38.184 21.6667 32.25 21.6667H21.5V0Z" fill="#FF7262"/>
<path d="M43 32.5001C43 38.4801 38.184 43.3334 32.25 43.3334C26.316 43.3334 21.5 38.4801 21.5 32.5001C21.5 26.5201 26.316 21.6667 32.25 21.6667C38.184 21.6667 43 26.5201 43 32.5001Z" fill="#1ABCFE"/>
</g>
<defs>
<clipPath id="clip0_59_496">
<rect width="43" height="65" fill="white"/>
</clipPath>
</defs>
</svg>
