<svg width="46" height="46" viewBox="0 0 46 46" fill="none" xmlns="http://www.w3.org/2000/svg">
<path d="M22.8354 4.11035C20.3364 4.11035 17.8619 4.60256 15.5531 5.55888C13.2443 6.5152 11.1465 7.9169 9.3795 9.68395C5.81078 13.2527 3.80589 18.0929 3.80589 23.1398C3.80589 31.5508 9.26735 38.6869 16.8221 41.2178C17.7735 41.3701 18.078 40.7801 18.078 40.2663V37.0504C12.8068 38.1921 11.6841 34.5004 11.6841 34.5004C10.8087 32.293 9.57182 31.7031 9.57182 31.7031C7.84014 30.5233 9.70503 30.5613 9.70503 30.5613C11.608 30.6945 12.6165 32.5214 12.6165 32.5214C14.2721 35.4138 17.0694 34.5575 18.1541 34.1008C18.3254 32.8639 18.8201 32.0266 19.353 31.5508C15.1284 31.0751 10.6946 29.4386 10.6946 22.1883C10.6946 20.0761 11.4177 18.3825 12.6546 17.0314C12.4643 16.5556 11.7983 14.5766 12.8449 12.0076C12.8449 12.0076 14.4434 11.4938 18.078 13.9486C19.5813 13.5299 21.2179 13.3206 22.8354 13.3206C24.4529 13.3206 26.0894 13.5299 27.5927 13.9486C31.2274 11.4938 32.8258 12.0076 32.8258 12.0076C33.8725 14.5766 33.2064 16.5556 33.0161 17.0314C34.253 18.3825 34.9762 20.0761 34.9762 22.1883C34.9762 29.4576 30.5233 31.0561 26.2797 31.5318C26.9648 32.1217 27.5927 33.2825 27.5927 35.0523V40.2663C27.5927 40.7801 27.8972 41.3891 28.8677 41.2178C36.4224 38.6679 41.8648 31.5508 41.8648 23.1398C41.8648 20.6408 41.3726 18.1663 40.4163 15.8576C39.46 13.5488 38.0583 11.451 36.2912 9.68395C34.5242 7.9169 32.4264 6.5152 30.1176 5.55888C27.8089 4.60256 25.3343 4.11035 22.8354 4.11035Z" fill="white"/>
</svg>
