<svg width="25" height="28" viewBox="0 0 25 28" fill="none" xmlns="http://www.w3.org/2000/svg">
<path d="M2.247 25.201L0 0H24.69L22.44 25.197L12.33 28L2.247 25.201Z" fill="#E44F26"/>
<path d="M12.345 25.858L20.515 23.593L22.437 2.06104H12.345V25.858Z" fill="#F1662A"/>
<path d="M12.345 11.4069H8.255L7.973 8.24188H12.345V5.15088H4.595L5.428 14.4979H12.345V11.4069ZM12.345 19.4339L12.331 19.4379L8.889 18.5089L8.669 16.0439H5.566L5.999 20.8959L12.331 22.6539L12.345 22.6499V19.4339Z" fill="#EBEBEB"/>
<path d="M12.334 11.4069V14.4979H16.14L15.782 18.5069L12.334 19.4369V22.6529L18.671 20.8959L18.717 20.3739L19.443 12.2369L19.519 11.4069H12.334ZM12.334 5.15088V8.24188H19.8L20.077 5.15088H12.334Z" fill="white"/>
</svg>
