<svg width="66" height="65" viewBox="0 0 66 65" fill="none" xmlns="http://www.w3.org/2000/svg">
<g clip-path="url(#clip0_59_508)">
<path d="M10.957 1H55.043C60.5341 1 65 5.49156 65 11.05V53.846C65 59.4044 60.5341 63.896 55.043 63.896H10.957C5.46586 63.896 1 59.4044 1 53.846V11.05C1 5.49156 5.46586 1 10.957 1Z" fill="#330000" stroke="#FF9A00" stroke-width="2"/>
<path d="M31.9827 38.9453H21.7552L19.6742 45.4643C19.6459 45.5832 19.5773 45.6884 19.4803 45.7618C19.3833 45.8352 19.264 45.8721 19.1428 45.8662H13.9626C13.6674 45.8662 13.564 45.7024 13.6527 45.3748L22.5078 19.6562C22.5962 19.3884 22.6849 19.0834 22.7733 18.741C22.8894 18.145 22.9487 17.5398 22.9505 16.9327C22.9444 16.8902 22.9483 16.8469 22.9617 16.8062C22.9752 16.7655 22.9978 16.7285 23.0279 16.6982C23.058 16.6678 23.0946 16.6449 23.135 16.6313C23.1753 16.6178 23.2182 16.6138 23.2604 16.6199H30.3002C30.5064 16.6199 30.6245 16.6945 30.6544 16.8435L40.7047 45.4196C40.7934 45.7175 40.7047 45.8665 40.4392 45.8662H34.6833C34.5844 45.8773 34.485 45.8517 34.4035 45.7942C34.322 45.7366 34.2641 45.6512 34.2406 45.5537L31.9827 38.9453ZM23.349 33.3194H30.3445L30.2448 32.9874L30.0847 32.4617L29.9704 32.0925L29.7882 31.5111L29.4007 30.2873L29.0598 29.2023L28.1748 26.3761C27.9545 25.6736 27.7431 24.9682 27.5406 24.2602L27.3787 23.6856L27.1894 23.0063L26.9007 21.9533L26.8465 21.7549H26.8024C26.5809 22.8266 26.3111 23.8877 25.9939 24.9347L25.337 27.0656L24.9756 28.2429L24.6108 29.4348C24.5448 29.65 24.4793 29.863 24.4136 30.0733L24.2176 30.6968L24.0227 31.3057L23.8288 31.8996L23.636 32.4786C23.5721 32.6692 23.5081 32.8571 23.4444 33.0428L23.349 33.3194ZM46.6813 21.3529C46.2298 21.3712 45.7795 21.2932 45.3598 21.1239C44.9402 20.9546 44.5608 20.6979 44.2463 20.3706C43.9326 20.0291 43.689 19.6285 43.5294 19.1917C43.3698 18.7549 43.2974 18.2906 43.3164 17.8255C43.3003 17.3651 43.3807 16.9064 43.5524 16.4794C43.724 16.0525 43.9831 15.6668 44.3125 15.3477C44.9481 14.7324 45.7944 14.3881 46.6754 14.3865L46.7698 14.3875C47.8325 14.3875 48.6665 14.7073 49.2716 15.3474C49.577 15.68 49.8143 16.0701 49.97 16.4953C50.1258 16.9205 50.1968 17.3726 50.1791 17.8255C50.1976 18.2924 50.1229 18.7584 49.9594 19.1957C49.7959 19.6329 49.5469 20.0326 49.2272 20.3709C48.9045 20.6917 48.5213 20.9442 48.1003 21.1134C47.6794 21.2827 47.2291 21.3652 46.776 21.3563L46.6813 21.3529ZM43.6263 45.4196V24.0767C43.6263 23.8089 43.7438 23.6747 43.9805 23.6747H49.4265C49.6624 23.6747 49.7805 23.8086 49.7808 24.0767V45.4196C49.7808 45.7175 49.6627 45.8665 49.4265 45.8662H44.0248C43.7732 45.8662 43.6407 45.7326 43.6275 45.4653L43.6263 45.4196Z" fill="#FF9A00"/>
</g>
<defs>
<clipPath id="clip0_59_508">
<rect width="66" height="65" fill="white"/>
</clipPath>
</defs>
</svg>
