<svg width="64" height="62" viewBox="0 0 64 62" fill="none" xmlns="http://www.w3.org/2000/svg">
<g clip-path="url(#clip0_59_473)">
<path d="M0.704002 0.681885H63.296V61.3184H0.704002V0.681885Z" fill="#F0DB4F"/>
<path d="M58.1735 46.8566C57.715 44.0903 55.853 41.7668 50.3375 39.6002C48.4215 38.7472 46.2855 38.1364 45.649 36.7298C45.423 35.9112 45.393 35.4501 45.536 34.9545C45.9465 33.3464 47.928 32.8451 49.4985 33.3062C50.51 33.6346 51.4675 34.3898 52.045 35.5944C54.746 33.9001 54.7405 33.9112 56.6265 32.7468C55.936 31.7097 55.5675 31.2312 55.1155 30.7875C53.491 29.0297 51.2775 28.1244 47.7375 28.1936L45.8935 28.4247C44.1265 28.8572 42.4425 29.7557 41.455 30.9604C38.492 34.2173 39.337 39.9174 42.9425 42.2633C46.4945 44.846 51.7125 45.4335 52.379 47.8486C53.0275 50.8052 50.136 51.7624 47.262 51.4223C45.144 50.9956 43.966 49.9527 42.6925 48.0564C40.3485 49.3705 40.3485 49.3705 37.9385 50.7132C38.51 51.9237 39.1105 52.4715 40.0685 53.5202C44.6025 57.9754 55.9485 57.7565 57.9835 51.013C58.066 50.7815 58.614 49.2373 58.1735 46.8566ZM34.731 28.5506H28.8765L28.8525 43.2136C28.8525 46.332 29.019 49.1908 28.4955 50.067C27.639 51.7904 25.4195 51.5768 24.408 51.2426C23.3785 50.7524 22.855 50.0554 22.2485 49.0702C22.082 48.7873 21.957 48.5684 21.915 48.5514L17.155 51.3753C17.9465 52.9491 19.1125 54.315 20.606 55.2024C22.837 56.4995 25.8355 56.8972 28.9715 56.1997C31.0125 55.6238 32.7735 54.4308 33.6955 52.6149C35.0285 50.2342 34.7425 47.3526 34.7305 44.1654C34.7605 38.9657 34.731 33.7669 34.731 28.5506Z" fill="#323330"/>
</g>
<defs>
<clipPath id="clip0_59_473">
<rect width="64" height="62" fill="white"/>
</clipPath>
</defs>
</svg>
