<svg width="38" height="38" viewBox="0 0 38 38" fill="none" xmlns="http://www.w3.org/2000/svg">
<path d="M0.731705 2.88339C0.731705 1.4121 1.95429 0.219727 3.46277 0.219727H35.1897C36.6981 0.219727 37.9207 1.4121 37.9207 2.88339V34.7451C37.9207 36.2164 36.6981 37.4088 35.1897 37.4088H3.46277C1.95429 37.4088 0.731705 36.2164 0.731705 34.7451V2.88339ZM12.2208 31.3516V14.5584H6.64011V31.3516H12.2208ZM9.43161 12.2643C11.3771 12.2643 12.588 10.9767 12.588 9.36358C12.5532 7.71564 11.3794 6.46283 9.4688 6.46283C7.55822 6.46283 6.31006 7.71796 6.31006 9.36358C6.31006 10.9767 7.52103 12.2643 9.39442 12.2643H9.43161ZM20.8393 31.3516V21.973C20.8393 21.4709 20.8765 20.9689 21.0253 20.6109C21.4274 19.6092 22.3455 18.5702 23.8888 18.5702C25.9087 18.5702 26.7152 20.1089 26.7152 22.3681V31.3516H32.2959V21.7196C32.2959 16.5597 29.5439 14.161 25.8715 14.161C22.9103 14.161 21.5831 15.788 20.8393 16.9339V16.992H20.8022C20.8145 16.9726 20.8269 16.9532 20.8393 16.9339V14.5584H15.261C15.3307 16.1343 15.261 31.3516 15.261 31.3516H20.8393Z" fill="white"/>
</svg>
