<svg width="45" height="51" viewBox="0 0 45 51" fill="none" xmlns="http://www.w3.org/2000/svg">
<path fill-rule="evenodd" clip-rule="evenodd" d="M22.6449 22.0754L20.1323 5.1563L14.2905 22.0754H11.2125L5.37072 5.09185L2.82669 22.0754H0L3.32922 0H6.31295L12.7829 18.7883L19.2215 0H22.1424L25.4716 22.0754H22.6449ZM34.3305 19.3684H44.1509V22.0754H31.4151V0H44.1509V2.70706H34.3305V9.3458H43.445V12.0529H34.3305V19.3684ZM20.3772 28.8679H17.5893V46.077L6.3108 28.8679H3.39613V50.9433H6.18407V33.7341L17.4626 50.9433H20.3772V28.8679ZM42.0299 42.1131V28.8679H45V42.1767C45 45.7341 43.6244 48.4658 41.2171 49.8633C39.9978 50.5939 38.5909 50.9433 36.9339 50.9433C33.6825 50.9433 31.2127 49.4822 29.8684 46.8458C29.2118 45.5436 28.8679 43.9872 28.8679 42.1767V28.8679H31.838V42.1131C31.838 45.9565 33.7138 48.2117 36.9339 48.2117C40.1541 48.2117 42.0299 45.9565 42.0299 42.1131Z" fill="white"/>
</svg>
