<svg width="65" height="65" viewBox="0 0 65 65" fill="none" xmlns="http://www.w3.org/2000/svg">
<g clip-path="url(#clip0_59_511)">
<path d="M10.791 1H54.209C59.5942 1 64 5.47705 64 11.05V53.846C64 59.419 59.5942 63.896 54.209 63.896H10.791C5.40581 63.896 1 59.419 1 53.846V11.05C1 5.47705 5.40581 1 10.791 1Z" fill="#001E36" stroke="#31A8FF" stroke-width="2"/>
<path d="M14.6362 45.5091V16.9772C14.6362 16.7692 14.7235 16.6647 14.8979 16.6647L15.1739 16.6639L15.6457 16.6587L16.3013 16.6454L18.4976 16.5978L20.8526 16.5531C21.6808 16.5386 22.5019 16.5308 23.316 16.5308C25.5249 16.5308 27.3853 16.8136 28.8973 17.3791C30.2612 17.8516 31.5051 18.6295 32.5383 19.6562C33.4143 20.5463 34.0912 21.6203 34.5224 22.8043C34.9303 23.9564 35.137 25.1731 35.133 26.3985C35.133 28.7804 34.595 30.745 33.5194 32.2925C32.4674 33.8022 31.0001 34.9568 29.3046 35.609L29.1591 35.6636C27.3886 36.3399 25.4279 36.5843 23.2776 36.5996L22.9435 36.6007L22.4476 36.5981L22.1975 36.5944L21.9187 36.5877L21.7506 36.5809L21.6486 36.5755L21.3974 36.5661L21.0905 36.5596L20.6284 36.5562L20.5255 36.556V45.4643C20.5332 45.519 20.5283 45.5746 20.5113 45.627C20.4942 45.6793 20.4655 45.7269 20.4274 45.7659C20.3894 45.8049 20.3429 45.8343 20.2918 45.8517C20.2407 45.8691 20.1863 45.8741 20.133 45.8663H14.9416C14.7377 45.8663 14.6362 45.7477 14.6362 45.5091ZM20.5258 22.0227V31.3287C20.8738 31.3574 21.2227 31.3723 21.5719 31.3734H23.011C24.0032 31.37 24.9897 31.2187 25.9393 30.9244L26.1287 30.8638C26.9927 30.601 27.7646 30.0895 28.3527 29.3901C28.8991 28.7302 29.1822 27.821 29.2018 26.6622L29.203 26.5324C29.2259 25.6687 29.0065 24.8164 28.5705 24.0767C28.1124 23.3614 27.4501 22.8079 26.6739 22.4915C25.6603 22.0881 24.5776 21.8983 23.4906 21.9336L22.9376 21.9351L22.5888 21.9382L22.2559 21.9427L21.7862 21.952L21.4434 21.9619L21.2654 21.9687L21.0275 21.9801L20.8249 21.9928L20.7094 22.0022L20.6096 22.0121L20.5656 22.0173L20.5258 22.0227ZM51.9924 29.6366C51.2317 29.2363 50.4249 28.9356 49.5909 28.7417L49.398 28.699C48.4805 28.4834 47.5438 28.3647 46.6027 28.3446L46.3676 28.3418C45.8159 28.3265 45.265 28.3942 44.7324 28.5428C44.3934 28.6199 44.0921 28.8176 43.8819 29.1007C43.7398 29.3272 43.6641 29.5907 43.664 29.8599C43.672 30.121 43.7639 30.3721 43.9255 30.5741C44.1569 30.8513 44.4352 31.0835 44.7469 31.2598L44.8414 31.311C45.4631 31.6538 46.1036 31.9593 46.7599 32.2262C48.2233 32.7278 49.6216 33.4101 50.9239 34.2578C51.8113 34.8313 52.5456 35.6215 53.0608 36.5575C53.494 37.4437 53.7109 38.4241 53.693 39.4149C53.7191 40.7234 53.354 42.0089 52.6464 43.0989C51.889 44.2052 50.8371 45.0652 49.6158 45.5767C48.3369 46.1523 46.7662 46.4495 44.9041 46.469L44.7106 46.47C43.5562 46.482 42.4034 46.3785 41.2687 46.1611L41.0259 46.1128C40.0705 45.9334 39.1404 45.6334 38.2571 45.2197C38.1683 45.1727 38.0933 45.1025 38.0396 45.0162C37.986 44.9299 37.9557 44.8305 37.9519 44.7283V39.8616C37.9466 39.8144 37.954 39.7666 37.9733 39.7233C37.9925 39.68 38.0228 39.6429 38.0611 39.6159C38.0985 39.5942 38.1415 39.5848 38.1843 39.5888C38.2271 39.5928 38.2677 39.61 38.3007 39.6383C39.3439 40.2682 40.4767 40.7277 41.6581 41.0001C42.6996 41.2675 43.7678 41.4099 44.8414 41.4245C45.8585 41.4245 46.607 41.2903 47.0869 41.0225C47.3036 40.9209 47.4869 40.7572 47.6146 40.5512C47.7423 40.3451 47.809 40.1056 47.8065 39.8616C47.8065 39.4752 47.5884 39.1029 47.1524 38.7454C46.9696 38.5957 46.7073 38.4326 46.3661 38.2566L46.2028 38.1745L46.0286 38.0905L45.9372 38.0478L45.7458 37.961C45.7126 37.9462 45.6793 37.9314 45.646 37.9168L45.4378 37.8274L45.3294 37.7819L45.1044 37.6896L44.9876 37.6428L44.7456 37.5473L44.4925 37.4504C43.1233 36.9624 41.8251 36.2865 40.6334 35.4411C39.7811 34.8341 39.0793 34.0313 38.5841 33.0969C38.1553 32.2171 37.9385 31.2449 37.9519 30.2616C37.9494 29.0802 38.2663 27.9212 38.8675 26.9128C39.553 25.8026 40.5371 24.9186 41.7018 24.3679C42.9807 23.7135 44.5793 23.3859 46.4981 23.3854C47.6219 23.3762 48.7447 23.4583 49.8558 23.6311C50.6603 23.7356 51.4469 23.9535 52.1932 24.2785C52.3133 24.3139 52.4101 24.4046 52.4547 24.5242C52.4845 24.6331 52.4989 24.7457 52.4984 24.8591V29.3688C52.5048 29.4754 52.4547 29.5776 52.3677 29.6366C52.3094 29.6663 52.2451 29.6817 52.18 29.6817C52.1149 29.6817 52.0507 29.6663 51.9924 29.6366Z" fill="#31A8FF"/>
</g>
<defs>
<clipPath id="clip0_59_511">
<rect width="65" height="65" fill="white"/>
</clipPath>
</defs>
</svg>
