<svg width="411" height="71" viewBox="0 0 411 71" fill="none" xmlns="http://www.w3.org/2000/svg">
<path d="M0.616407 71V0.399997H40.8164C53.7164 0.399997 68.4164 1.6 68.4164 18.6V21.7C68.4164 38.9 53.3164 39.9 40.5164 39.9L69.1164 71H62.0164L33.5164 39.9H5.51641L5.71641 71H0.616407ZM5.51641 34.5H42.6164C51.2164 34.5 62.0164 33.8 63.3164 24.3C63.4164 23.1 63.4164 21.9 63.4164 20.7V18.7C63.4164 5.9 51.3164 5.9 40.5164 5.9H5.51641V34.5ZM92.575 63.2V71H85.675V63.2H92.575ZM109.21 0.499996H173.21V6H114.11V31.6H159.21V37.1H114.11V65.5H173.11V71H109.21V0.499996ZM196.677 63.2V71H189.777V63.2H196.677ZM213.312 5.9V0.399997H282.712V5.9H250.512V71H245.412L245.512 5.9H213.312ZM306.247 63.2V71H299.347V63.2H306.247ZM322.882 0.499996H386.882V6H327.782V31.6H372.882V37.1H327.782V65.5H386.782V71H322.882V0.499996ZM410.348 63.2V71H403.448V63.2H410.348Z" fill="#ECE8F5"/>
</svg>
