<svg width="80" height="60" viewBox="0 0 80 60" fill="none" xmlns="http://www.w3.org/2000/svg">
<g clip-path="url(#clip0_59_481)">
<path d="M68.8378 34.5356C66.0547 34.5499 63.6356 35.2203 61.6103 36.2112C60.8669 34.7393 60.1238 33.4281 59.9928 32.4662C59.8469 31.3443 59.6722 30.6593 59.8469 29.3187C60.0219 27.9781 60.8087 26.069 60.7941 25.9234C60.7797 25.7778 60.6191 25.0928 59.0163 25.0784C57.4134 25.0637 56.0291 25.3843 55.8687 25.8068C55.7084 26.2293 55.4025 27.1912 55.1984 28.1818C54.9216 29.6393 51.9928 34.8412 50.3172 37.5662C49.7778 36.5028 49.3116 35.5699 49.2094 34.8268C49.0637 33.7049 48.8888 33.0199 49.0637 31.6793C49.2387 30.3387 50.0256 28.4299 50.0109 28.284C49.9963 28.1384 49.8359 27.4534 48.2331 27.439C46.63 27.4243 45.2456 27.7449 45.0856 28.1674C44.9253 28.5903 44.7503 29.5809 44.4153 30.5428C44.08 31.5046 40.1894 40.1896 39.1694 42.4334C38.7572 43.3415 38.3248 44.2404 37.8725 45.1293C37.8725 45.1293 37.8578 45.1731 37.8141 45.2459C37.672 45.5246 37.5263 45.8015 37.3772 46.0765V46.0909C37.1584 46.4846 36.9253 46.8487 36.8088 46.8487C36.7213 46.8487 36.5609 45.7996 36.8378 44.3715C37.4206 41.3553 38.805 36.6631 38.7906 36.5028C38.7906 36.4153 39.0528 35.5993 37.8872 35.1765C36.7503 34.754 36.3425 35.4534 36.2403 35.4534C36.1384 35.4534 36.0653 35.7012 36.0653 35.7012C36.0653 35.7012 37.3334 30.4262 33.6466 30.4262C31.3444 30.4262 28.1675 32.9471 26.5938 35.2203C24.8047 36.1938 23.0172 37.1702 21.2313 38.1493C20.3719 38.6303 19.4828 39.1112 18.6522 39.5628C18.5938 39.5046 18.5356 39.4315 18.4772 39.3734C14.0181 34.6084 5.77062 31.2421 6.12031 24.8453C6.25156 22.5137 7.05281 16.3934 21.96 8.96181C34.2294 2.91432 43.9928 4.58994 45.6831 8.30588C48.1019 13.6103 40.4519 23.4609 27.7741 24.8887C22.9362 25.4281 20.4006 23.5628 19.7597 22.8634C19.0894 22.1346 18.9872 22.0909 18.7394 22.2368C18.3316 22.4556 18.5938 23.1112 18.7394 23.4899C19.1184 24.4806 20.6775 26.2293 23.315 27.0893C25.6466 27.8468 31.315 28.2696 38.1784 25.6174C45.8578 22.6446 51.8616 14.3824 50.0984 7.46088C48.335 0.437128 36.6775 -1.87975 25.6466 2.03994C19.0894 4.37182 11.9781 8.04369 6.86344 12.8234C0.786874 18.5062 -0.175001 23.4462 0.218437 25.5156C1.63219 32.8596 11.7597 37.6393 15.8106 41.1802C15.6066 41.2968 15.4169 41.399 15.2569 41.4865C13.2312 42.4918 5.50812 46.5281 3.58469 50.7977C1.39906 55.6356 3.93469 59.104 5.61031 59.5699C10.8125 61.0127 16.1603 58.419 19.0309 54.1346C21.9016 49.8506 21.5519 44.284 20.2259 41.734C20.2113 41.7049 20.1969 41.6756 20.1675 41.6465C20.6922 41.3406 21.2313 41.0199 21.7559 40.714C22.7203 40.1439 23.6969 39.5948 24.685 39.0671C24.1894 40.4224 23.825 42.0399 23.6503 44.3715C23.4316 47.1112 24.5534 50.6665 26.0253 52.0653C26.6812 52.6777 27.4534 52.6921 27.9491 52.6921C29.6684 52.6921 30.4409 51.264 31.3006 49.5737C32.3497 47.5046 33.2969 45.1003 33.2969 45.1003C33.2969 45.1003 32.1166 51.5993 35.3225 51.5993C36.4881 51.5993 37.6684 50.0837 38.1931 49.3115V49.3259C38.1931 49.3259 38.2222 49.2821 38.2806 49.1803C38.3972 48.9909 38.47 48.874 38.47 48.874V48.8452C38.9363 48.029 39.9856 46.1784 41.5447 43.1037C43.5556 39.1403 45.4937 34.1859 45.4937 34.1859C45.4937 34.1859 45.6687 35.3953 46.2659 37.4062C46.6159 38.5865 47.3441 39.8834 47.9272 41.1365C47.4609 41.7924 47.1694 42.1565 47.1694 42.1565L47.1841 42.1712C46.805 42.6665 46.3972 43.2056 45.9453 43.7306C44.3569 45.6246 42.4628 47.7962 42.2003 48.4224C41.8941 49.1656 41.9672 49.7049 42.5503 50.1421C42.9728 50.4628 43.7303 50.5062 44.5028 50.4628C45.9309 50.3606 46.9363 50.0109 47.4316 49.7924C48.2041 49.5156 49.1075 49.0928 49.9525 48.4662C51.5119 47.3149 52.4587 45.6684 52.3716 43.4974C52.3278 42.3024 51.9344 41.1074 51.4534 39.9853C51.5994 39.7815 51.7303 39.5774 51.8762 39.3734C54.3388 35.774 56.2478 31.8249 56.2478 31.8249C56.2478 31.8249 56.4228 33.0343 57.02 35.0456C57.3116 36.0656 57.9091 37.1731 58.4334 38.2512C56.1166 40.1312 54.6884 42.3168 54.1784 43.7449C53.2606 46.3971 53.9744 47.5918 55.3297 47.8687C55.9416 47.9999 56.8159 47.7084 57.4572 47.4315C58.2731 47.1693 59.235 46.7178 60.1531 46.0471C61.7125 44.8962 63.2131 43.2931 63.1256 41.1221C63.0819 40.1312 62.8197 39.1546 62.4553 38.2074C64.4225 37.3918 66.9581 36.9399 70.1928 37.3187C77.1294 38.1346 78.4991 42.4624 78.2366 44.2843C77.9744 46.1056 76.5172 47.0965 76.0366 47.4024C75.5553 47.7087 75.3953 47.8106 75.4391 48.029C75.4972 48.3496 75.7303 48.3353 76.1384 48.2768C76.7069 48.1749 79.7816 46.8049 79.9125 43.4534C80.1313 39.1693 76.0509 34.4918 68.8378 34.5356ZM15.3297 52.5756C13.0272 55.0818 9.82156 56.029 8.43719 55.2278C6.95094 54.3678 7.53375 50.6665 10.3606 48.0146C12.08 46.3971 14.295 44.8959 15.7669 43.9781C16.1019 43.774 16.5975 43.4828 17.195 43.1184C17.2969 43.0599 17.3553 43.0309 17.3553 43.0309L17.705 42.8121C18.7394 46.6009 17.7488 49.9381 15.3297 52.5756ZM32.0875 41.1802C31.2859 43.1331 29.6103 48.1312 28.5903 47.8543C27.7159 47.6212 27.1766 43.8324 28.4153 40.0874C29.0419 38.2074 30.3678 35.9634 31.1403 35.0893C32.3934 33.6903 33.7778 33.2237 34.1128 33.7924C34.5356 34.5356 32.5828 39.9562 32.0875 41.1802ZM45.9163 47.7959C45.5809 47.9709 45.2606 48.0874 45.1147 47.9999C45.0128 47.9415 45.2606 47.7084 45.2606 47.7084C45.2606 47.7084 46.9947 45.8434 47.6794 44.9981C48.0731 44.5028 48.5391 43.9199 49.0347 43.264V43.4534C49.0347 45.6831 46.8778 47.184 45.9159 47.7959H45.9163ZM56.5828 45.3624C56.335 45.1874 56.3788 44.6046 57.2094 42.7831C57.53 42.069 58.2875 40.8743 59.5847 39.7231C59.7303 40.1893 59.8325 40.6412 59.8178 41.0637C59.8031 43.8762 57.7925 44.9253 56.5828 45.3624Z" fill="#CD6799"/>
</g>
<defs>
<clipPath id="clip0_59_481">
<rect width="80" height="60" fill="white"/>
</clipPath>
</defs>
</svg>
