<svg width="48" height="49" viewBox="0 0 48 49" fill="none" xmlns="http://www.w3.org/2000/svg">
<path d="M44.9439 12.0702C43.4158 12.7743 41.7687 13.237 40.062 13.4583C41.8083 12.3921 43.1578 10.7023 43.7929 8.6705C42.1457 9.67634 40.32 10.3804 38.395 10.7828C36.8272 9.05272 34.6245 8.04688 32.124 8.04688C27.4604 8.04688 23.6502 11.9093 23.6502 16.677C23.6502 17.361 23.7295 18.0248 23.8685 18.6485C16.8036 18.2864 10.5128 14.8464 6.32545 9.63611C5.59119 10.9035 5.17444 12.3921 5.17444 13.9612C5.17444 16.9586 6.66282 19.6141 8.96484 21.1228C7.55585 21.1228 6.24607 20.7205 5.09506 20.117V20.1773C5.09506 24.3617 8.03213 27.862 11.9218 28.6465C10.673 28.993 9.36193 29.0412 8.09166 28.7874C8.63066 30.5023 9.68628 32.0029 11.1101 33.0782C12.534 34.1534 14.2544 34.7494 16.0297 34.7822C13.0204 37.1971 9.29029 38.5024 5.45227 38.4837C4.77754 38.4837 4.10281 38.4435 3.42808 38.363C7.19864 40.8173 11.6836 42.2456 16.4861 42.2456C32.124 42.2456 40.7169 29.0891 40.7169 17.6829C40.7169 17.3006 40.7169 16.9385 40.697 16.5563C42.364 15.3493 43.7928 13.8204 44.9439 12.0702Z" fill="white"/>
</svg>
